<svg width="370" height="24" viewBox="0 0 370 24" fill="none" xmlns="http://www.w3.org/2000/svg">
<path d="M0 12H370" stroke="#E5E7EB"/>
<path d="M205 0H165V24H205V0Z" fill="white"/>
<path d="M182.395 17.1591C181.705 17.1591 181.101 16.995 180.58 16.6669C180.063 16.3388 179.659 15.8797 179.367 15.2898C179.079 14.6998 178.935 14.0104 178.935 13.2216C178.935 12.4261 179.079 11.7318 179.367 11.1385C179.659 10.5452 180.063 10.0845 180.58 9.75639C181.101 9.42827 181.705 9.2642 182.395 9.2642C183.084 9.2642 183.688 9.42827 184.205 9.75639C184.725 10.0845 185.129 10.5452 185.418 11.1385C185.709 11.7318 185.855 12.4261 185.855 13.2216C185.855 14.0104 185.709 14.6998 185.418 15.2898C185.129 15.8797 184.725 16.3388 184.205 16.6669C183.688 16.995 183.084 17.1591 182.395 17.1591ZM182.395 16.1051C182.919 16.1051 183.349 15.9709 183.688 15.7024C184.026 15.4339 184.276 15.081 184.438 14.6435C184.601 14.206 184.682 13.732 184.682 13.2216C184.682 12.7112 184.601 12.2356 184.438 11.7947C184.276 11.3539 184.026 10.9976 183.688 10.7259C183.349 10.4541 182.919 10.3182 182.395 10.3182C181.871 10.3182 181.44 10.4541 181.102 10.7259C180.764 10.9976 180.514 11.3539 180.352 11.7947C180.189 12.2356 180.108 12.7112 180.108 13.2216C180.108 13.732 180.189 14.206 180.352 14.6435C180.514 15.081 180.764 15.4339 181.102 15.7024C181.44 15.9709 181.871 16.1051 182.395 16.1051ZM187.646 17V9.36364H188.78V10.517H188.859C188.998 10.1392 189.25 9.83262 189.615 9.5973C189.979 9.36198 190.39 9.24432 190.848 9.24432C190.934 9.24432 191.042 9.24597 191.171 9.24929C191.3 9.2526 191.398 9.25758 191.464 9.2642V10.4574C191.425 10.4474 191.333 10.4325 191.191 10.4126C191.052 10.3894 190.904 10.3778 190.748 10.3778C190.377 10.3778 190.046 10.4557 189.754 10.6115C189.466 10.764 189.237 10.9761 189.068 11.2479C188.902 11.5163 188.819 11.8229 188.819 12.1676V17H187.646Z" fill="#6B7280"/>
</svg>