<svg width="450" height="320" viewBox="0 0 450 320" fill="none" xmlns="http://www.w3.org/2000/svg">
<path d="M438 0H12C5.37258 0 0 5.37258 0 12V308C0 314.627 5.37258 320 12 320H438C444.627 320 450 314.627 450 308V12C450 5.37258 444.627 0 438 0Z" fill="white"/>
<path d="M424 20H26C22.6863 20 20 22.6863 20 26V54C20 57.3137 22.6863 60 26 60H424C427.314 60 430 57.3137 430 54V26C430 22.6863 427.314 20 424 20Z" fill="#F3F4F6"/>
<path d="M40 50C45.5228 50 50 45.5228 50 40C50 34.4772 45.5228 30 40 30C34.4772 30 30 34.4772 30 40C30 45.5228 34.4772 50 40 50Z" fill="#F59E0B"/>
<path d="M70.976 36.312V46H69.702V38.776L66.482 46H65.586L62.352 38.762V46H61.078V36.312H62.45L66.034 44.32L69.618 36.312H70.976ZM79.7446 38.328L75.1246 49.612H73.8086L75.3206 45.916L72.2266 38.328H73.6406L76.0486 44.544L78.4286 38.328H79.7446ZM87.7957 36.242C88.8597 36.242 89.779 36.4427 90.5537 36.844C91.3377 37.236 91.935 37.8007 92.3457 38.538C92.7657 39.2753 92.9757 40.1433 92.9757 41.142C92.9757 42.1407 92.7657 43.0087 92.3457 43.746C91.935 44.474 91.3377 45.034 90.5537 45.426C89.779 45.8087 88.8597 46 87.7957 46H84.7577V36.242H87.7957ZM87.7957 44.95C89.0557 44.95 90.017 44.6187 90.6797 43.956C91.3424 43.284 91.6737 42.346 91.6737 41.142C91.6737 39.9287 91.3377 38.9813 90.6657 38.3C90.003 37.6187 89.0464 37.278 87.7957 37.278H86.0317V44.95H87.7957ZM94.1801 42.136C94.1801 41.352 94.3388 40.666 94.6561 40.078C94.9735 39.4807 95.4075 39.0187 95.9581 38.692C96.5181 38.3653 97.1388 38.202 97.8201 38.202C98.4921 38.202 99.0755 38.3467 99.5701 38.636C100.065 38.9253 100.433 39.2893 100.676 39.728V38.328H101.964V46H100.676V44.572C100.424 45.02 100.046 45.3933 99.5421 45.692C99.0475 45.9813 98.4688 46.126 97.8061 46.126C97.1248 46.126 96.5088 45.958 95.9581 45.622C95.4075 45.286 94.9735 44.8147 94.6561 44.208C94.3388 43.6013 94.1801 42.9107 94.1801 42.136ZM100.676 42.15C100.676 41.5713 100.559 41.0673 100.326 40.638C100.093 40.2087 99.7755 39.882 99.3741 39.658C98.9821 39.4247 98.5481 39.308 98.0721 39.308C97.5961 39.308 97.1621 39.42 96.7701 39.644C96.3781 39.868 96.0655 40.1947 95.8321 40.624C95.5988 41.0533 95.4821 41.5573 95.4821 42.136C95.4821 42.724 95.5988 43.2373 95.8321 43.676C96.0655 44.1053 96.3781 44.4367 96.7701 44.67C97.1621 44.894 97.5961 45.006 98.0721 45.006C98.5481 45.006 98.9821 44.894 99.3741 44.67C99.7755 44.4367 100.093 44.1053 100.326 43.676C100.559 43.2373 100.676 42.7287 100.676 42.15ZM106.833 46.126C106.245 46.126 105.718 46.028 105.251 45.832C104.784 45.6267 104.416 45.3467 104.145 44.992C103.874 44.628 103.725 44.2127 103.697 43.746H105.013C105.05 44.1287 105.228 44.4413 105.545 44.684C105.872 44.9267 106.296 45.048 106.819 45.048C107.304 45.048 107.687 44.9407 107.967 44.726C108.247 44.5113 108.387 44.2407 108.387 43.914C108.387 43.578 108.238 43.3307 107.939 43.172C107.64 43.004 107.178 42.8407 106.553 42.682C105.984 42.5327 105.517 42.3833 105.153 42.234C104.798 42.0753 104.49 41.8467 104.229 41.548C103.977 41.24 103.851 40.8387 103.851 40.344C103.851 39.952 103.968 39.5927 104.201 39.266C104.434 38.9393 104.766 38.6827 105.195 38.496C105.624 38.3 106.114 38.202 106.665 38.202C107.514 38.202 108.2 38.4167 108.723 38.846C109.246 39.2753 109.526 39.8633 109.563 40.61H108.289C108.261 40.2087 108.098 39.8867 107.799 39.644C107.51 39.4013 107.118 39.28 106.623 39.28C106.166 39.28 105.802 39.378 105.531 39.574C105.26 39.77 105.125 40.0267 105.125 40.344C105.125 40.596 105.204 40.806 105.363 40.974C105.531 41.1327 105.736 41.2633 105.979 41.366C106.231 41.4593 106.576 41.5667 107.015 41.688C107.566 41.8373 108.014 41.9867 108.359 42.136C108.704 42.276 108.998 42.4907 109.241 42.78C109.493 43.0693 109.624 43.4473 109.633 43.914C109.633 44.334 109.516 44.712 109.283 45.048C109.05 45.384 108.718 45.65 108.289 45.846C107.869 46.0327 107.384 46.126 106.833 46.126ZM115.24 38.188C115.818 38.188 116.341 38.314 116.808 38.566C117.274 38.8087 117.638 39.1773 117.9 39.672C118.17 40.1667 118.306 40.7687 118.306 41.478V46H117.046V41.66C117.046 40.8947 116.854 40.3113 116.472 39.91C116.089 39.4993 115.566 39.294 114.904 39.294C114.232 39.294 113.695 39.504 113.294 39.924C112.902 40.344 112.706 40.9553 112.706 41.758V46H111.432V35.64H112.706V39.42C112.958 39.028 113.303 38.7247 113.742 38.51C114.19 38.2953 114.689 38.188 115.24 38.188ZM121.661 39.756C121.922 39.2987 122.305 38.9253 122.809 38.636C123.313 38.3467 123.887 38.202 124.531 38.202C125.221 38.202 125.842 38.3653 126.393 38.692C126.943 39.0187 127.377 39.4807 127.695 40.078C128.012 40.666 128.171 41.352 128.171 42.136C128.171 42.9107 128.012 43.6013 127.695 44.208C127.377 44.8147 126.939 45.286 126.379 45.622C125.828 45.958 125.212 46.126 124.531 46.126C123.868 46.126 123.285 45.9813 122.781 45.692C122.286 45.4027 121.913 45.034 121.661 44.586V46H120.387V35.64H121.661V39.756ZM126.869 42.136C126.869 41.5573 126.752 41.0533 126.519 40.624C126.285 40.1947 125.968 39.868 125.567 39.644C125.175 39.42 124.741 39.308 124.265 39.308C123.798 39.308 123.364 39.4247 122.963 39.658C122.571 39.882 122.253 40.2133 122.011 40.652C121.777 41.0813 121.661 41.5807 121.661 42.15C121.661 42.7287 121.777 43.2373 122.011 43.676C122.253 44.1053 122.571 44.4367 122.963 44.67C123.364 44.894 123.798 45.006 124.265 45.006C124.741 45.006 125.175 44.894 125.567 44.67C125.968 44.4367 126.285 44.1053 126.519 43.676C126.752 43.2373 126.869 42.724 126.869 42.136ZM133.194 46.126C132.475 46.126 131.822 45.9627 131.234 45.636C130.655 45.3093 130.198 44.8473 129.862 44.25C129.535 43.6433 129.372 42.9433 129.372 42.15C129.372 41.366 129.54 40.6753 129.876 40.078C130.221 39.4713 130.688 39.0093 131.276 38.692C131.864 38.3653 132.522 38.202 133.25 38.202C133.978 38.202 134.636 38.3653 135.224 38.692C135.812 39.0093 136.274 39.4667 136.61 40.064C136.955 40.6613 137.128 41.3567 137.128 42.15C137.128 42.9433 136.95 43.6433 136.596 44.25C136.25 44.8473 135.779 45.3093 135.182 45.636C134.584 45.9627 133.922 46.126 133.194 46.126ZM133.194 45.006C133.651 45.006 134.08 44.8987 134.482 44.684C134.883 44.4693 135.205 44.1473 135.448 43.718C135.7 43.2887 135.826 42.766 135.826 42.15C135.826 41.534 135.704 41.0113 135.462 40.582C135.219 40.1527 134.902 39.8353 134.51 39.63C134.118 39.4153 133.693 39.308 133.236 39.308C132.769 39.308 132.34 39.4153 131.948 39.63C131.565 39.8353 131.257 40.1527 131.024 40.582C130.79 41.0113 130.674 41.534 130.674 42.15C130.674 42.7753 130.786 43.3027 131.01 43.732C131.243 44.1613 131.551 44.4833 131.934 44.698C132.316 44.9033 132.736 45.006 133.194 45.006ZM138.327 42.136C138.327 41.352 138.485 40.666 138.803 40.078C139.12 39.4807 139.554 39.0187 140.105 38.692C140.665 38.3653 141.285 38.202 141.967 38.202C142.639 38.202 143.222 38.3467 143.717 38.636C144.211 38.9253 144.58 39.2893 144.823 39.728V38.328H146.111V46H144.823V44.572C144.571 45.02 144.193 45.3933 143.689 45.692C143.194 45.9813 142.615 46.126 141.953 46.126C141.271 46.126 140.655 45.958 140.105 45.622C139.554 45.286 139.12 44.8147 138.803 44.208C138.485 43.6013 138.327 42.9107 138.327 42.136ZM144.823 42.15C144.823 41.5713 144.706 41.0673 144.473 40.638C144.239 40.2087 143.922 39.882 143.521 39.658C143.129 39.4247 142.695 39.308 142.219 39.308C141.743 39.308 141.309 39.42 140.917 39.644C140.525 39.868 140.212 40.1947 139.979 40.624C139.745 41.0533 139.629 41.5573 139.629 42.136C139.629 42.724 139.745 43.2373 139.979 43.676C140.212 44.1053 140.525 44.4367 140.917 44.67C141.309 44.894 141.743 45.006 142.219 45.006C142.695 45.006 143.129 44.894 143.521 44.67C143.922 44.4367 144.239 44.1053 144.473 43.676C144.706 43.2373 144.823 42.7287 144.823 42.15ZM149.538 39.574C149.762 39.1353 150.079 38.7947 150.49 38.552C150.91 38.3093 151.418 38.188 152.016 38.188V39.504H151.68C150.252 39.504 149.538 40.2787 149.538 41.828V46H148.264V38.328H149.538V39.574ZM153.01 42.136C153.01 41.352 153.169 40.666 153.486 40.078C153.804 39.4807 154.238 39.0187 154.788 38.692C155.348 38.3653 155.974 38.202 156.664 38.202C157.262 38.202 157.817 38.342 158.33 38.622C158.844 38.8927 159.236 39.252 159.506 39.7V35.64H160.794V46H159.506V44.558C159.254 45.0153 158.881 45.3933 158.386 45.692C157.892 45.9813 157.313 46.126 156.65 46.126C155.969 46.126 155.348 45.958 154.788 45.622C154.238 45.286 153.804 44.8147 153.486 44.208C153.169 43.6013 153.01 42.9107 153.01 42.136ZM159.506 42.15C159.506 41.5713 159.39 41.0673 159.156 40.638C158.923 40.2087 158.606 39.882 158.204 39.658C157.812 39.4247 157.378 39.308 156.902 39.308C156.426 39.308 155.992 39.42 155.6 39.644C155.208 39.868 154.896 40.1947 154.662 40.624C154.429 41.0533 154.312 41.5573 154.312 42.136C154.312 42.724 154.429 43.2373 154.662 43.676C154.896 44.1053 155.208 44.4367 155.6 44.67C155.992 44.894 156.426 45.006 156.902 45.006C157.378 45.006 157.812 44.894 158.204 44.67C158.606 44.4367 158.923 44.1053 159.156 43.676C159.39 43.2373 159.506 42.7287 159.506 42.15Z" fill="#1F2937"/>
<path d="M404 25H256C252.686 25 250 27.6863 250 31V49C250 52.3137 252.686 55 256 55H404C407.314 55 410 52.3137 410 49V31C410 27.6863 407.314 25 404 25Z" fill="white" stroke="#E5E7EB"/>
<path d="M275.83 38.4545C275.778 38.0227 275.571 37.6875 275.207 37.4489C274.844 37.2102 274.398 37.0909 273.869 37.0909C273.483 37.0909 273.145 37.1534 272.855 37.2784C272.568 37.4034 272.344 37.5753 272.182 37.794C272.023 38.0128 271.943 38.2614 271.943 38.5398C271.943 38.7727 271.999 38.973 272.109 39.1406C272.223 39.3054 272.368 39.4432 272.544 39.554C272.72 39.6619 272.905 39.7514 273.098 39.8224C273.291 39.8906 273.469 39.946 273.631 39.9886L274.517 40.2273C274.744 40.2869 274.997 40.3693 275.276 40.4744C275.557 40.5795 275.825 40.723 276.081 40.9048C276.339 41.0838 276.553 41.3139 276.72 41.5952C276.888 41.8764 276.972 42.2216 276.972 42.6307C276.972 43.1023 276.848 43.5284 276.601 43.9091C276.357 44.2898 275.999 44.5923 275.527 44.8168C275.058 45.0412 274.489 45.1534 273.818 45.1534C273.193 45.1534 272.652 45.0526 272.195 44.8509C271.74 44.6491 271.382 44.3679 271.121 44.0071C270.862 43.6463 270.716 43.2273 270.682 42.75H271.773C271.801 43.0795 271.912 43.3523 272.105 43.5682C272.301 43.7812 272.548 43.9403 272.847 44.0455C273.148 44.1477 273.472 44.1989 273.818 44.1989C274.222 44.1989 274.584 44.1335 274.905 44.0028C275.226 43.8693 275.48 43.6847 275.668 43.4489C275.855 43.2102 275.949 42.9318 275.949 42.6136C275.949 42.3239 275.868 42.0881 275.706 41.9062C275.544 41.7244 275.331 41.5767 275.067 41.4631C274.803 41.3494 274.517 41.25 274.21 41.1648L273.136 40.858C272.455 40.6619 271.915 40.3821 271.517 40.0185C271.119 39.6548 270.92 39.179 270.92 38.5909C270.92 38.1023 271.053 37.6761 271.317 37.3125C271.584 36.946 271.942 36.6619 272.391 36.4602C272.842 36.2557 273.347 36.1534 273.903 36.1534C274.466 36.1534 274.966 36.2543 275.403 36.456C275.841 36.6548 276.188 36.9276 276.443 37.2741C276.702 37.6207 276.838 38.0142 276.852 38.4545H275.83ZM281.317 45.1364C280.686 45.1364 280.142 44.9972 279.685 44.7188C279.23 44.4375 278.88 44.0455 278.632 43.5426C278.388 43.0369 278.266 42.4489 278.266 41.7784C278.266 41.108 278.388 40.517 278.632 40.0057C278.88 39.4915 279.223 39.0909 279.664 38.804C280.107 38.5142 280.624 38.3693 281.215 38.3693C281.556 38.3693 281.892 38.4261 282.225 38.5398C282.557 38.6534 282.86 38.8381 283.132 39.0938C283.405 39.3466 283.623 39.6818 283.784 40.0994C283.946 40.517 284.027 41.0312 284.027 41.642V42.0682H278.982V41.1989H283.005C283.005 40.8295 282.931 40.5 282.783 40.2102C282.638 39.9205 282.431 39.6918 282.161 39.5241C281.894 39.3565 281.578 39.2727 281.215 39.2727C280.814 39.2727 280.468 39.3722 280.175 39.571C279.885 39.767 279.662 40.0227 279.506 40.3381C279.35 40.6534 279.272 40.9915 279.272 41.3523V41.9318C279.272 42.4261 279.357 42.8452 279.527 43.1889C279.701 43.5298 279.941 43.7898 280.248 43.9688C280.554 44.1449 280.911 44.233 281.317 44.233C281.581 44.233 281.82 44.196 282.033 44.1222C282.249 44.0455 282.435 43.9318 282.591 43.7812C282.748 43.6278 282.868 43.4375 282.953 43.2102L283.925 43.483C283.823 43.8125 283.651 44.1023 283.409 44.3523C283.168 44.5994 282.87 44.7926 282.515 44.9318C282.159 45.0682 281.76 45.1364 281.317 45.1364ZM287.483 45.1534C287.069 45.1534 286.692 45.0753 286.354 44.919C286.016 44.7599 285.748 44.5312 285.549 44.233C285.35 43.9318 285.25 43.5682 285.25 43.142C285.25 42.767 285.324 42.4631 285.472 42.2301C285.62 41.9943 285.817 41.8097 286.064 41.6761C286.311 41.5426 286.584 41.4432 286.882 41.3778C287.184 41.3097 287.486 41.2557 287.79 41.2159C288.188 41.1648 288.51 41.1264 288.757 41.1009C289.007 41.0724 289.189 41.0256 289.303 40.9602C289.419 40.8949 289.478 40.7812 289.478 40.6193V40.5852C289.478 40.1648 289.363 39.8381 289.132 39.6051C288.905 39.3722 288.56 39.2557 288.097 39.2557C287.617 39.2557 287.24 39.3608 286.968 39.571C286.695 39.7812 286.503 40.0057 286.392 40.2443L285.438 39.9034C285.608 39.5057 285.836 39.196 286.12 38.9744C286.407 38.75 286.719 38.5937 287.057 38.5057C287.398 38.4148 287.733 38.3693 288.063 38.3693C288.273 38.3693 288.515 38.3949 288.787 38.446C289.063 38.4943 289.328 38.5952 289.584 38.7486C289.843 38.902 290.057 39.1335 290.228 39.4432C290.398 39.7528 290.483 40.1676 290.483 40.6875V45H289.478V44.1136H289.426C289.358 44.2557 289.245 44.4077 289.086 44.5696C288.926 44.7315 288.715 44.8693 288.451 44.983C288.186 45.0966 287.864 45.1534 287.483 45.1534ZM287.637 44.25C288.034 44.25 288.37 44.1719 288.642 44.0156C288.918 43.8594 289.125 43.6577 289.265 43.4105C289.407 43.1634 289.478 42.9034 289.478 42.6307V41.7102C289.435 41.7614 289.341 41.8082 289.196 41.8509C289.054 41.8906 288.89 41.9261 288.702 41.9574C288.517 41.9858 288.337 42.0114 288.161 42.0341C287.988 42.054 287.847 42.071 287.739 42.0852C287.478 42.1193 287.233 42.1747 287.006 42.2514C286.782 42.3253 286.6 42.4375 286.461 42.5881C286.324 42.7358 286.256 42.9375 286.256 43.1932C286.256 43.5426 286.385 43.8068 286.644 43.9858C286.905 44.1619 287.236 44.25 287.637 44.25ZM292.319 45V38.4545H293.29V39.4432H293.359C293.478 39.1193 293.694 38.8565 294.006 38.6548C294.319 38.4531 294.671 38.3523 295.063 38.3523C295.137 38.3523 295.229 38.3537 295.34 38.3565C295.451 38.3594 295.535 38.3636 295.592 38.3693V39.392C295.558 39.3835 295.479 39.3707 295.357 39.3537C295.238 39.3338 295.112 39.3239 294.978 39.3239C294.66 39.3239 294.376 39.3906 294.126 39.5241C293.879 39.6548 293.683 39.8366 293.538 40.0696C293.396 40.2997 293.325 40.5625 293.325 40.858V45H292.319ZM299.244 45.1364C298.63 45.1364 298.102 44.9915 297.658 44.7017C297.215 44.4119 296.874 44.0128 296.636 43.5043C296.397 42.9957 296.278 42.4148 296.278 41.7614C296.278 41.0966 296.4 40.5099 296.644 40.0014C296.891 39.4901 297.235 39.0909 297.675 38.804C298.119 38.5142 298.636 38.3693 299.227 38.3693C299.687 38.3693 300.102 38.4545 300.471 38.625C300.84 38.7955 301.143 39.0341 301.379 39.3409C301.614 39.6477 301.761 40.0057 301.817 40.4148H300.812C300.735 40.1165 300.565 39.8523 300.3 39.6222C300.039 39.3892 299.687 39.2727 299.244 39.2727C298.852 39.2727 298.508 39.375 298.212 39.5795C297.92 39.7812 297.691 40.0668 297.526 40.4361C297.364 40.8026 297.283 41.233 297.283 41.7273C297.283 42.233 297.363 42.6733 297.522 43.0483C297.684 43.4233 297.911 43.7145 298.204 43.9219C298.499 44.1293 298.846 44.233 299.244 44.233C299.505 44.233 299.742 44.1875 299.955 44.0966C300.168 44.0057 300.349 43.875 300.496 43.7045C300.644 43.5341 300.749 43.3295 300.812 43.0909H301.817C301.761 43.4773 301.62 43.8253 301.396 44.1349C301.174 44.4418 300.88 44.6861 300.513 44.8679C300.15 45.0469 299.727 45.1364 299.244 45.1364ZM304.293 41.0625V45H303.288V36.2727H304.293V39.4773H304.379C304.532 39.1392 304.762 38.8707 305.069 38.6719C305.379 38.4702 305.79 38.3693 306.305 38.3693C306.751 38.3693 307.141 38.4588 307.477 38.6378C307.812 38.8139 308.072 39.0852 308.256 39.4517C308.444 39.8153 308.538 40.2784 308.538 40.8409V45H307.532V40.9091C307.532 40.3892 307.397 39.9872 307.127 39.7031C306.86 39.4162 306.489 39.2727 306.015 39.2727C305.685 39.2727 305.39 39.3423 305.129 39.4815C304.87 39.6207 304.665 39.8239 304.515 40.0909C304.367 40.358 304.293 40.6818 304.293 41.0625ZM316.497 45.1364C315.866 45.1364 315.322 44.9972 314.865 44.7188C314.41 44.4375 314.059 44.0455 313.812 43.5426C313.568 43.0369 313.446 42.4489 313.446 41.7784C313.446 41.108 313.568 40.517 313.812 40.0057C314.059 39.4915 314.403 39.0909 314.843 38.804C315.287 38.5142 315.804 38.3693 316.395 38.3693C316.735 38.3693 317.072 38.4261 317.404 38.5398C317.737 38.6534 318.039 38.8381 318.312 39.0938C318.585 39.3466 318.802 39.6818 318.964 40.0994C319.126 40.517 319.207 41.0312 319.207 41.642V42.0682H314.162V41.1989H318.184C318.184 40.8295 318.11 40.5 317.963 40.2102C317.818 39.9205 317.61 39.6918 317.341 39.5241C317.074 39.3565 316.758 39.2727 316.395 39.2727C315.994 39.2727 315.647 39.3722 315.355 39.571C315.065 39.767 314.842 40.0227 314.686 40.3381C314.529 40.6534 314.451 40.9915 314.451 41.3523V41.9318C314.451 42.4261 314.537 42.8452 314.707 43.1889C314.88 43.5298 315.12 43.7898 315.427 43.9688C315.734 44.1449 316.091 44.233 316.497 44.233C316.761 44.233 317 44.196 317.213 44.1222C317.429 44.0455 317.615 43.9318 317.771 43.7812C317.927 43.6278 318.048 43.4375 318.133 43.2102L319.105 43.483C319.002 43.8125 318.831 44.1023 318.589 44.3523C318.348 44.5994 318.049 44.7926 317.694 44.9318C317.339 45.0682 316.94 45.1364 316.497 45.1364ZM325.89 38.4545L323.469 45H322.447L320.026 38.4545H321.117L322.924 43.6705H322.992L324.799 38.4545H325.89ZM329.727 45.1364C329.097 45.1364 328.553 44.9972 328.095 44.7188C327.641 44.4375 327.29 44.0455 327.043 43.5426C326.798 43.0369 326.676 42.4489 326.676 41.7784C326.676 41.108 326.798 40.517 327.043 40.0057C327.29 39.4915 327.634 39.0909 328.074 38.804C328.517 38.5142 329.034 38.3693 329.625 38.3693C329.966 38.3693 330.303 38.4261 330.635 38.5398C330.967 38.6534 331.27 38.8381 331.543 39.0938C331.815 39.3466 332.033 39.6818 332.195 40.0994C332.357 40.517 332.438 41.0312 332.438 41.642V42.0682H327.392V41.1989H331.415C331.415 40.8295 331.341 40.5 331.193 40.2102C331.048 39.9205 330.841 39.6918 330.571 39.5241C330.304 39.3565 329.989 39.2727 329.625 39.2727C329.224 39.2727 328.878 39.3722 328.585 39.571C328.295 39.767 328.072 40.0227 327.916 40.3381C327.76 40.6534 327.682 40.9915 327.682 41.3523V41.9318C327.682 42.4261 327.767 42.8452 327.938 43.1889C328.111 43.5298 328.351 43.7898 328.658 43.9688C328.964 44.1449 329.321 44.233 329.727 44.233C329.991 44.233 330.23 44.196 330.443 44.1222C330.659 44.0455 330.845 43.9318 331.001 43.7812C331.158 43.6278 331.278 43.4375 331.364 43.2102L332.335 43.483C332.233 43.8125 332.061 44.1023 331.82 44.3523C331.578 44.5994 331.28 44.7926 330.925 44.9318C330.57 45.0682 330.17 45.1364 329.727 45.1364ZM334.973 41.0625V45H333.967V38.4545H334.939V39.4773H335.024C335.178 39.1449 335.411 38.8778 335.723 38.6761C336.036 38.4716 336.439 38.3693 336.933 38.3693C337.376 38.3693 337.764 38.4602 338.097 38.642C338.429 38.821 338.688 39.0938 338.872 39.4602C339.057 39.8239 339.149 40.2841 339.149 40.8409V45H338.143V40.9091C338.143 40.3949 338.01 39.9943 337.743 39.7074C337.476 39.4176 337.109 39.2727 336.643 39.2727C336.322 39.2727 336.036 39.3423 335.783 39.4815C335.533 39.6207 335.335 39.8239 335.19 40.0909C335.045 40.358 334.973 40.6818 334.973 41.0625ZM343.833 38.4545V39.3068H340.441V38.4545H343.833ZM341.43 36.8864H342.436V43.125C342.436 43.4091 342.477 43.6222 342.559 43.7642C342.645 43.9034 342.752 43.9972 342.883 44.0455C343.017 44.0909 343.157 44.1136 343.305 44.1136C343.416 44.1136 343.507 44.108 343.578 44.0966C343.649 44.0824 343.706 44.071 343.748 44.0625L343.953 44.9659C343.885 44.9915 343.789 45.017 343.667 45.0426C343.545 45.071 343.39 45.0852 343.203 45.0852C342.919 45.0852 342.64 45.0241 342.368 44.902C342.098 44.7798 341.873 44.5938 341.694 44.3438C341.518 44.0938 341.43 43.7784 341.43 43.3977V36.8864ZM349.865 39.9205L348.962 40.1761C348.905 40.0256 348.821 39.8793 348.711 39.7372C348.603 39.5923 348.455 39.473 348.267 39.3793C348.08 39.2855 347.84 39.2386 347.547 39.2386C347.147 39.2386 346.813 39.331 346.546 39.5156C346.282 39.6974 346.15 39.929 346.15 40.2102C346.15 40.4602 346.24 40.6577 346.422 40.8026C346.604 40.9474 346.888 41.0682 347.275 41.1648L348.246 41.4034C348.831 41.5455 349.267 41.7628 349.554 42.0554C349.841 42.3452 349.985 42.7187 349.985 43.1761C349.985 43.5511 349.877 43.8864 349.661 44.1818C349.448 44.4773 349.15 44.7102 348.766 44.8807C348.382 45.0511 347.936 45.1364 347.428 45.1364C346.76 45.1364 346.208 44.9915 345.77 44.7017C345.333 44.4119 345.056 43.9886 344.939 43.4318L345.894 43.1932C345.985 43.5455 346.157 43.8097 346.409 43.9858C346.665 44.1619 346.999 44.25 347.411 44.25C347.88 44.25 348.252 44.1506 348.527 43.9517C348.806 43.75 348.945 43.5085 348.945 43.2273C348.945 43 348.865 42.8097 348.706 42.6562C348.547 42.5 348.303 42.3835 347.973 42.3068L346.882 42.0511C346.283 41.9091 345.843 41.6889 345.561 41.3906C345.283 41.0895 345.144 40.7131 345.144 40.2614C345.144 39.892 345.248 39.5653 345.455 39.2812C345.665 38.9972 345.951 38.7741 346.311 38.6122C346.675 38.4503 347.087 38.3693 347.547 38.3693C348.195 38.3693 348.703 38.5114 349.073 38.7955C349.445 39.0795 349.709 39.4545 349.865 39.9205ZM352.232 45.0682C352.021 45.0682 351.841 44.9929 351.69 44.8423C351.54 44.6918 351.464 44.5114 351.464 44.3011C351.464 44.0909 351.54 43.9105 351.69 43.7599C351.841 43.6094 352.021 43.5341 352.232 43.5341C352.442 43.5341 352.622 43.6094 352.773 43.7599C352.923 43.9105 352.999 44.0909 352.999 44.3011C352.999 44.4403 352.963 44.5682 352.892 44.6847C352.824 44.8011 352.732 44.8949 352.615 44.9659C352.501 45.0341 352.374 45.0682 352.232 45.0682ZM355.536 45.0682C355.326 45.0682 355.146 44.9929 354.995 44.8423C354.844 44.6918 354.769 44.5114 354.769 44.3011C354.769 44.0909 354.844 43.9105 354.995 43.7599C355.146 43.6094 355.326 43.5341 355.536 43.5341C355.746 43.5341 355.927 43.6094 356.077 43.7599C356.228 43.9105 356.303 44.0909 356.303 44.3011C356.303 44.4403 356.268 44.5682 356.197 44.6847C356.129 44.8011 356.036 44.8949 355.92 44.9659C355.806 45.0341 355.678 45.0682 355.536 45.0682ZM358.841 45.0682C358.631 45.0682 358.45 44.9929 358.3 44.8423C358.149 44.6918 358.074 44.5114 358.074 44.3011C358.074 44.0909 358.149 43.9105 358.3 43.7599C358.45 43.6094 358.631 43.5341 358.841 43.5341C359.051 43.5341 359.232 43.6094 359.382 43.7599C359.533 43.9105 359.608 44.0909 359.608 44.3011C359.608 44.4403 359.572 44.5682 359.501 44.6847C359.433 44.8011 359.341 44.8949 359.224 44.9659C359.111 45.0341 358.983 45.0682 358.841 45.0682Z" fill="#9CA3AF"/>
<path d="M424 80H26C22.6863 80 20 82.6863 20 86V104C20 107.314 22.6863 110 26 110H424C427.314 110 430 107.314 430 104V86C430 82.6863 427.314 80 424 80Z" fill="#F3F4F6"/>
<path d="M41.6619 91.2727H43.9375L45.3736 97.1364H45.4759L48.8466 91.2727H51.1222L49.6733 100H47.8835L48.8295 94.3196H48.7528L45.5653 99.9574H44.3423L43.0298 94.2983H42.9574L42.0028 100H40.2131L41.6619 91.2727ZM53.0089 100.124C52.5941 100.124 52.2347 100.051 51.9308 99.9062C51.6296 99.7585 51.408 99.5398 51.266 99.25C51.1239 98.9602 51.0884 98.6009 51.1594 98.1719C51.2219 97.8082 51.3398 97.5043 51.5131 97.2599C51.6893 97.0128 51.9038 96.8139 52.1566 96.6634C52.4094 96.5128 52.6893 96.3977 52.9961 96.3182C53.3058 96.2386 53.6254 96.1847 53.9549 96.1562C54.3356 96.1165 54.6452 96.0781 54.8839 96.0412C55.1254 96.0043 55.3058 95.9517 55.4251 95.8835C55.5444 95.8125 55.6168 95.7074 55.6424 95.5682V95.5426C55.685 95.2756 55.6353 95.0682 55.4933 94.9205C55.354 94.7699 55.131 94.6946 54.8242 94.6946C54.5004 94.6946 54.2248 94.7656 53.9975 94.9077C53.7731 95.0497 53.6126 95.2301 53.516 95.4489L51.8626 95.3125C52.0103 94.9148 52.2333 94.571 52.5316 94.2812C52.8327 93.9886 53.195 93.7642 53.6183 93.608C54.0415 93.4489 54.516 93.3693 55.0415 93.3693C55.4052 93.3693 55.7447 93.4119 56.06 93.4972C56.3782 93.5824 56.6523 93.7145 56.8825 93.8935C57.1154 94.0724 57.283 94.3026 57.3853 94.5838C57.4904 94.8622 57.5117 95.196 57.4492 95.5852L56.712 100H54.9904L55.1438 99.0923H55.0927C54.9535 99.2969 54.783 99.4773 54.5813 99.6335C54.3796 99.7869 54.1481 99.9077 53.8867 99.9957C53.6254 100.081 53.3327 100.124 53.0089 100.124ZM53.7376 98.8707C54.0018 98.8707 54.2447 98.8182 54.4663 98.7131C54.6907 98.6051 54.8754 98.4602 55.0202 98.2784C55.168 98.0966 55.2617 97.8906 55.3015 97.6605L55.4123 96.9659C55.3555 97.0028 55.2731 97.0355 55.1651 97.0639C55.06 97.0923 54.945 97.1193 54.82 97.1449C54.6978 97.1676 54.5742 97.1889 54.4492 97.2088C54.3242 97.2259 54.212 97.2429 54.1126 97.2599C53.8938 97.2912 53.6978 97.3409 53.5245 97.4091C53.3512 97.4773 53.2106 97.5696 53.1026 97.6861C52.9947 97.7997 52.9279 97.9418 52.9023 98.1122C52.8626 98.3594 52.9208 98.5483 53.0771 98.679C53.2362 98.8068 53.4563 98.8707 53.7376 98.8707ZM58.6062 102.455C58.3732 102.455 58.1602 102.436 57.967 102.399C57.7738 102.365 57.6147 102.321 57.4897 102.267L58.1289 100.912C58.3306 100.977 58.5138 101.011 58.6786 101.014C58.8462 101.017 58.9996 100.974 59.1388 100.886C59.2781 100.798 59.4059 100.653 59.5224 100.452L59.6843 100.175L58.457 93.4545H60.2979L60.8519 98.2699H60.9201L63.0891 93.4545H65.0792L61.3335 100.707C61.1488 101.063 60.93 101.371 60.6772 101.632C60.4272 101.893 60.1303 102.095 59.7866 102.237C59.4457 102.382 59.0522 102.455 58.6062 102.455ZM67.6776 100L67.9034 98.6705L71.483 95.794C71.7898 95.5384 72.0497 95.3082 72.2628 95.1037C72.4787 94.8991 72.6491 94.6989 72.7741 94.5028C72.902 94.304 72.9858 94.0895 73.0256 93.8594C73.0682 93.6037 73.0469 93.3835 72.9616 93.1989C72.8793 93.0114 72.7457 92.8679 72.5611 92.7685C72.3793 92.6662 72.1605 92.6151 71.9048 92.6151C71.6378 92.6151 71.3949 92.669 71.1761 92.777C70.9574 92.8849 70.7756 93.0398 70.6307 93.2415C70.4858 93.4432 70.3892 93.6832 70.3409 93.9616H68.5895C68.6861 93.3906 68.9006 92.8949 69.233 92.4744C69.5653 92.054 69.983 91.7287 70.4858 91.4986C70.9886 91.2685 71.5455 91.1534 72.1562 91.1534C72.7812 91.1534 73.3068 91.2642 73.733 91.4858C74.1619 91.7045 74.473 92.0085 74.6662 92.3977C74.8594 92.7869 74.9134 93.233 74.8281 93.7358C74.7713 94.0682 74.6506 94.3949 74.4659 94.7159C74.2813 95.0341 73.9915 95.3892 73.5966 95.7812C73.2017 96.1705 72.6605 96.6378 71.973 97.1832L70.4943 98.4318L70.4815 98.4915H74.1506L73.8991 100H67.6776ZM78.6282 100.192C77.8952 100.192 77.2944 100.013 76.8256 99.6548C76.3569 99.294 76.0373 98.7741 75.8668 98.0952C75.6992 97.4162 75.695 96.5994 75.854 95.6449C76.016 94.6932 76.293 93.8821 76.685 93.2116C77.0799 92.5412 77.5685 92.0312 78.1509 91.6818C78.7362 91.3295 79.3938 91.1534 80.1239 91.1534C80.8512 91.1534 81.4492 91.3295 81.918 91.6818C82.3867 92.0341 82.7077 92.544 82.881 93.2116C83.0572 93.8793 83.0657 94.6903 82.9066 95.6449C82.7475 96.6023 82.4705 97.4205 82.0756 98.0994C81.6808 98.7756 81.1907 99.294 80.6055 99.6548C80.0202 100.013 79.3612 100.192 78.6282 100.192ZM78.8839 98.6619C79.3867 98.6619 79.8271 98.4105 80.2049 97.9077C80.5827 97.4048 80.8555 96.6506 81.0231 95.6449C81.1339 94.9858 81.158 94.4361 81.0955 93.9957C81.0359 93.5526 80.9009 93.2202 80.6907 92.9986C80.4805 92.777 80.2092 92.6662 79.8768 92.6662C79.3796 92.6662 78.9393 92.9162 78.5558 93.4162C78.1751 93.9134 77.9023 94.6562 77.7376 95.6449C77.6268 96.3153 77.6026 96.875 77.6651 97.3239C77.7276 97.7699 77.864 98.1051 78.0742 98.3295C78.2844 98.5511 78.5543 98.6619 78.8839 98.6619ZM83.4979 100L83.7237 98.6705L87.3033 95.794C87.6101 95.5384 87.87 95.3082 88.0831 95.1037C88.299 94.8991 88.4695 94.6989 88.5945 94.5028C88.7223 94.304 88.8061 94.0895 88.8459 93.8594C88.8885 93.6037 88.8672 93.3835 88.782 93.1989C88.6996 93.0114 88.5661 92.8679 88.3814 92.7685C88.1996 92.6662 87.9808 92.6151 87.7251 92.6151C87.4581 92.6151 87.2152 92.669 86.9964 92.777C86.7777 92.8849 86.5959 93.0398 86.451 93.2415C86.3061 93.4432 86.2095 93.6832 86.1612 93.9616H84.4098C84.5064 93.3906 84.7209 92.8949 85.0533 92.4744C85.3857 92.054 85.8033 91.7287 86.3061 91.4986C86.8089 91.2685 87.3658 91.1534 87.9766 91.1534C88.6016 91.1534 89.1271 91.2642 89.5533 91.4858C89.9822 91.7045 90.2933 92.0085 90.4865 92.3977C90.6797 92.7869 90.7337 93.233 90.6484 93.7358C90.5916 94.0682 90.4709 94.3949 90.2862 94.7159C90.1016 95.0341 89.8118 95.3892 89.4169 95.7812C89.022 96.1705 88.4808 96.6378 87.7933 97.1832L86.3146 98.4318L86.3018 98.4915H89.9709L89.7195 100H83.4979ZM94.2269 100.119C93.6275 100.119 93.109 100.009 92.6715 99.7869C92.2369 99.5625 91.9144 99.2557 91.7042 98.8665C91.494 98.4773 91.4244 98.0327 91.4954 97.5327H93.2852C93.2511 97.8679 93.3477 98.142 93.5749 98.3551C93.8022 98.5653 94.0991 98.6705 94.4656 98.6705C94.7553 98.6705 95.0224 98.6065 95.2667 98.4787C95.511 98.348 95.7156 98.1676 95.8803 97.9375C96.0479 97.7074 96.1559 97.4403 96.2042 97.1364C96.2553 96.8295 96.2354 96.5597 96.1445 96.3267C96.0536 96.0937 95.9059 95.9119 95.7013 95.7812C95.4968 95.6477 95.2468 95.581 94.9513 95.581C94.6928 95.581 94.4357 95.6349 94.18 95.7429C93.9244 95.848 93.7141 95.9901 93.5494 96.169L91.9556 95.875L93.136 91.2727H98.4712L98.2241 92.7812H94.4144L93.8221 94.9673H93.8732C94.0636 94.7514 94.3249 94.5724 94.6573 94.4304C94.9897 94.2884 95.3477 94.2173 95.7312 94.2173C96.2567 94.2173 96.7042 94.3409 97.0735 94.5881C97.4457 94.8352 97.7141 95.1747 97.8789 95.6065C98.0437 96.0384 98.0792 96.5327 97.9854 97.0895C97.8917 97.6776 97.6715 98.1989 97.3249 98.6534C96.9783 99.108 96.538 99.4659 96.0039 99.7273C95.4698 99.9886 94.8775 100.119 94.2269 100.119Z" fill="#4B5563"/>
<path d="M41.0568 131.273H42.3182L45.2841 138.517H45.3864L48.3523 131.273H49.6136V140H48.625V133.369H48.5398L45.8125 140H44.858L42.1307 133.369H42.0455V140H41.0568V131.273ZM59.0962 135.636C59.0962 136.557 58.93 137.352 58.5977 138.023C58.2653 138.693 57.8093 139.21 57.2298 139.574C56.6502 139.938 55.9883 140.119 55.244 140.119C54.4996 140.119 53.8377 139.938 53.2582 139.574C52.6786 139.21 52.2227 138.693 51.8903 138.023C51.5579 137.352 51.3917 136.557 51.3917 135.636C51.3917 134.716 51.5579 133.92 51.8903 133.25C52.2227 132.58 52.6786 132.062 53.2582 131.699C53.8377 131.335 54.4996 131.153 55.244 131.153C55.9883 131.153 56.6502 131.335 57.2298 131.699C57.8093 132.062 58.2653 132.58 58.5977 133.25C58.93 133.92 59.0962 134.716 59.0962 135.636ZM58.0735 135.636C58.0735 134.881 57.9471 134.243 57.6942 133.723C57.4442 133.203 57.1048 132.81 56.6758 132.543C56.2496 132.276 55.7724 132.142 55.244 132.142C54.7156 132.142 54.2369 132.276 53.8079 132.543C53.3817 132.81 53.0423 133.203 52.7894 133.723C52.5394 134.243 52.4144 134.881 52.4144 135.636C52.4144 136.392 52.5394 137.03 52.7894 137.55C53.0423 138.07 53.3817 138.463 53.8079 138.73C54.2369 138.997 54.7156 139.131 55.244 139.131C55.7724 139.131 56.2496 138.997 56.6758 138.73C57.1048 138.463 57.4442 138.07 57.6942 137.55C57.9471 137.03 58.0735 136.392 58.0735 135.636ZM67.7937 131.273V140H66.771L62.0153 133.148H61.93V140H60.8732V131.273H61.896L66.6687 138.142H66.7539V131.273H67.7937Z" fill="#9CA3AF"/>
<path d="M100.58 132.21V131.273H107.125V132.21H104.381V140H103.324V132.21H100.58ZM114.483 131.273H115.54V137.051C115.54 137.648 115.4 138.18 115.118 138.649C114.84 139.115 114.446 139.483 113.938 139.753C113.429 140.02 112.833 140.153 112.148 140.153C111.463 140.153 110.867 140.02 110.358 139.753C109.85 139.483 109.455 139.115 109.174 138.649C108.895 138.18 108.756 137.648 108.756 137.051V131.273H109.813V136.966C109.813 137.392 109.907 137.771 110.094 138.104C110.282 138.433 110.549 138.693 110.895 138.884C111.245 139.071 111.662 139.165 112.148 139.165C112.634 139.165 113.051 139.071 113.401 138.884C113.75 138.693 114.017 138.433 114.202 138.104C114.39 137.771 114.483 137.392 114.483 136.966V131.273ZM117.651 140V131.273H122.918V132.21H118.707V135.159H122.645V136.097H118.707V139.062H122.986V140H117.651Z" fill="#9CA3AF"/>
<path d="M162.642 140L160.256 131.273H161.33L163.153 138.381H163.239L165.097 131.273H166.29L168.148 138.381H168.233L170.057 131.273H171.131L168.744 140H167.653L165.727 133.045H165.659L163.733 140H162.642ZM172.447 140V131.273H177.714V132.21H173.504V135.159H177.442V136.097H173.504V139.062H177.783V140H172.447ZM182.312 140H179.619V131.273H182.432C183.278 131.273 184.003 131.447 184.605 131.797C185.207 132.143 185.669 132.642 185.99 133.293C186.311 133.94 186.472 134.716 186.472 135.619C186.472 136.528 186.31 137.311 185.986 137.967C185.662 138.621 185.19 139.124 184.571 139.476C183.952 139.825 183.199 140 182.312 140ZM180.676 139.062H182.244C182.966 139.062 183.564 138.923 184.038 138.645C184.513 138.366 184.866 137.97 185.099 137.456C185.332 136.942 185.449 136.33 185.449 135.619C185.449 134.915 185.334 134.308 185.104 133.8C184.874 133.288 184.53 132.896 184.072 132.624C183.615 132.348 183.045 132.21 182.364 132.21H180.676V139.062Z" fill="#9CA3AF"/>
<path d="M220.58 132.21V131.273H227.125V132.21H224.381V140H223.324V132.21H220.58ZM228.756 140V131.273H229.813V135.159H234.466V131.273H235.523V140H234.466V136.097H229.813V140H228.756ZM243.366 131.273H244.423V137.051C244.423 137.648 244.282 138.18 244.001 138.649C243.723 139.115 243.329 139.483 242.821 139.753C242.312 140.02 241.716 140.153 241.031 140.153C240.346 140.153 239.75 140.02 239.241 139.753C238.733 139.483 238.338 139.115 238.056 138.649C237.778 138.18 237.639 137.648 237.639 137.051V131.273H238.696V136.966C238.696 137.392 238.789 137.771 238.977 138.104C239.164 138.433 239.431 138.693 239.778 138.884C240.127 139.071 240.545 139.165 241.031 139.165C241.517 139.165 241.934 139.071 242.284 138.884C242.633 138.693 242.9 138.433 243.085 138.104C243.272 137.771 243.366 137.392 243.366 136.966V131.273Z" fill="#9CA3AF"/>
<path d="M281.057 140V131.273H286.29V132.21H282.114V135.159H285.898V136.097H282.114V140H281.057ZM288.1 140V131.273H291.049C291.73 131.273 292.29 131.389 292.728 131.622C293.165 131.852 293.489 132.169 293.699 132.572C293.909 132.976 294.015 133.435 294.015 133.949C294.015 134.463 293.909 134.919 293.699 135.317C293.489 135.714 293.167 136.027 292.732 136.254C292.297 136.479 291.742 136.591 291.066 136.591H288.679V135.636H291.032C291.498 135.636 291.873 135.568 292.157 135.432C292.444 135.295 292.651 135.102 292.779 134.852C292.909 134.599 292.975 134.298 292.975 133.949C292.975 133.599 292.909 133.294 292.779 133.033C292.648 132.771 292.439 132.57 292.152 132.428C291.865 132.283 291.486 132.21 291.015 132.21H289.157V140H288.1ZM292.208 136.08L294.355 140H293.128L291.015 136.08H292.208ZM296.832 131.273V140H295.776V131.273H296.832Z" fill="#9CA3AF"/>
<path d="M345.83 133.455C345.778 133.023 345.571 132.688 345.207 132.449C344.844 132.21 344.398 132.091 343.869 132.091C343.483 132.091 343.145 132.153 342.855 132.278C342.568 132.403 342.344 132.575 342.182 132.794C342.023 133.013 341.943 133.261 341.943 133.54C341.943 133.773 341.999 133.973 342.109 134.141C342.223 134.305 342.368 134.443 342.544 134.554C342.72 134.662 342.905 134.751 343.098 134.822C343.291 134.891 343.469 134.946 343.631 134.989L344.517 135.227C344.744 135.287 344.997 135.369 345.276 135.474C345.557 135.58 345.825 135.723 346.081 135.905C346.339 136.084 346.553 136.314 346.72 136.595C346.888 136.876 346.972 137.222 346.972 137.631C346.972 138.102 346.848 138.528 346.601 138.909C346.357 139.29 345.999 139.592 345.527 139.817C345.058 140.041 344.489 140.153 343.818 140.153C343.193 140.153 342.652 140.053 342.195 139.851C341.74 139.649 341.382 139.368 341.121 139.007C340.862 138.646 340.716 138.227 340.682 137.75H341.773C341.801 138.08 341.912 138.352 342.105 138.568C342.301 138.781 342.548 138.94 342.847 139.045C343.148 139.148 343.472 139.199 343.818 139.199C344.222 139.199 344.584 139.134 344.905 139.003C345.226 138.869 345.48 138.685 345.668 138.449C345.855 138.21 345.949 137.932 345.949 137.614C345.949 137.324 345.868 137.088 345.706 136.906C345.544 136.724 345.331 136.577 345.067 136.463C344.803 136.349 344.517 136.25 344.21 136.165L343.136 135.858C342.455 135.662 341.915 135.382 341.517 135.018C341.119 134.655 340.92 134.179 340.92 133.591C340.92 133.102 341.053 132.676 341.317 132.312C341.584 131.946 341.942 131.662 342.391 131.46C342.842 131.256 343.347 131.153 343.903 131.153C344.466 131.153 344.966 131.254 345.403 131.456C345.841 131.655 346.188 131.928 346.443 132.274C346.702 132.621 346.838 133.014 346.852 133.455H345.83ZM349.067 140H347.959L351.164 131.273H352.255L355.459 140H354.351L351.743 132.653H351.675L349.067 140ZM349.476 136.591H353.942V137.528H349.476V136.591ZM355.322 132.21V131.273H361.867V132.21H359.123V140H358.066V132.21H355.322Z" fill="#9CA3AF"/>
<path d="M405.83 133.455C405.778 133.023 405.571 132.688 405.207 132.449C404.844 132.21 404.398 132.091 403.869 132.091C403.483 132.091 403.145 132.153 402.855 132.278C402.568 132.403 402.344 132.575 402.182 132.794C402.023 133.013 401.943 133.261 401.943 133.54C401.943 133.773 401.999 133.973 402.109 134.141C402.223 134.305 402.368 134.443 402.544 134.554C402.72 134.662 402.905 134.751 403.098 134.822C403.291 134.891 403.469 134.946 403.631 134.989L404.517 135.227C404.744 135.287 404.997 135.369 405.276 135.474C405.557 135.58 405.825 135.723 406.081 135.905C406.339 136.084 406.553 136.314 406.72 136.595C406.888 136.876 406.972 137.222 406.972 137.631C406.972 138.102 406.848 138.528 406.601 138.909C406.357 139.29 405.999 139.592 405.527 139.817C405.058 140.041 404.489 140.153 403.818 140.153C403.193 140.153 402.652 140.053 402.195 139.851C401.74 139.649 401.382 139.368 401.121 139.007C400.862 138.646 400.716 138.227 400.682 137.75H401.773C401.801 138.08 401.912 138.352 402.105 138.568C402.301 138.781 402.548 138.94 402.847 139.045C403.148 139.148 403.472 139.199 403.818 139.199C404.222 139.199 404.584 139.134 404.905 139.003C405.226 138.869 405.48 138.685 405.668 138.449C405.855 138.21 405.949 137.932 405.949 137.614C405.949 137.324 405.868 137.088 405.706 136.906C405.544 136.724 405.331 136.577 405.067 136.463C404.803 136.349 404.517 136.25 404.21 136.165L403.136 135.858C402.455 135.662 401.915 135.382 401.517 135.018C401.119 134.655 400.92 134.179 400.92 133.591C400.92 133.102 401.053 132.676 401.317 132.312C401.584 131.946 401.942 131.662 402.391 131.46C402.842 131.256 403.347 131.153 403.903 131.153C404.466 131.153 404.966 131.254 405.403 131.456C405.841 131.655 406.188 131.928 406.443 132.274C406.702 132.621 406.838 133.014 406.852 133.455H405.83ZM414.436 131.273H415.493V137.051C415.493 137.648 415.353 138.18 415.071 138.649C414.793 139.115 414.4 139.483 413.891 139.753C413.382 140.02 412.786 140.153 412.101 140.153C411.417 140.153 410.82 140.02 410.311 139.753C409.803 139.483 409.408 139.115 409.127 138.649C408.848 138.18 408.709 137.648 408.709 137.051V131.273H409.766V136.966C409.766 137.392 409.86 137.771 410.047 138.104C410.235 138.433 410.502 138.693 410.848 138.884C411.198 139.071 411.615 139.165 412.101 139.165C412.587 139.165 413.005 139.071 413.354 138.884C413.703 138.693 413.971 138.433 414.155 138.104C414.343 137.771 414.436 137.392 414.436 136.966V131.273ZM424.524 131.273V140H423.501L418.746 133.148H418.661V140H417.604V131.273H418.626L423.399 138.142H423.484V131.273H424.524Z" fill="#9CA3AF"/>
<path d="M40 180C48.2843 180 55 173.284 55 165C55 156.716 48.2843 150 40 150C31.7157 150 25 156.716 25 165C25 173.284 31.7157 180 40 180Z" fill="white" stroke="#E5E7EB"/>
<path d="M41.1825 161.273V170H40.1257V162.381H40.0746L37.9439 163.795V162.722L40.1257 161.273H41.1825Z" fill="#6B7280"/>
<path d="M100 180C108.284 180 115 173.284 115 165C115 156.716 108.284 150 100 150C91.7157 150 85 156.716 85 165C85 173.284 91.7157 180 100 180Z" fill="white" stroke="#E5E7EB"/>
<path d="M97.2706 170V169.233L100.151 166.08C100.489 165.71 100.768 165.389 100.987 165.116C101.205 164.841 101.367 164.582 101.472 164.341C101.58 164.097 101.634 163.841 101.634 163.574C101.634 163.267 101.56 163.001 101.413 162.777C101.268 162.553 101.069 162.379 100.816 162.257C100.563 162.135 100.279 162.074 99.9638 162.074C99.6286 162.074 99.3359 162.143 99.0859 162.283C98.8388 162.419 98.647 162.611 98.5107 162.858C98.3771 163.105 98.3104 163.395 98.3104 163.727H97.3047C97.3047 163.216 97.4226 162.767 97.6584 162.381C97.8942 161.994 98.2152 161.693 98.6214 161.477C99.0305 161.261 99.4893 161.153 99.9979 161.153C100.509 161.153 100.962 161.261 101.357 161.477C101.752 161.693 102.062 161.984 102.286 162.351C102.511 162.717 102.623 163.125 102.623 163.574C102.623 163.895 102.565 164.209 102.448 164.516C102.335 164.82 102.136 165.159 101.852 165.534C101.57 165.906 101.18 166.361 100.68 166.898L98.7195 168.994V169.062H102.776V170H97.2706Z" fill="#6B7280"/>
<path d="M160 180C168.284 180 175 173.284 175 165C175 156.716 168.284 150 160 150C151.716 150 145 156.716 145 165C145 173.284 151.716 180 160 180Z" fill="white" stroke="#E5E7EB"/>
<path d="M160.032 170.119C159.469 170.119 158.968 170.023 158.528 169.83C158.09 169.636 157.742 169.368 157.484 169.024C157.228 168.678 157.089 168.276 157.066 167.818H158.14C158.163 168.099 158.259 168.342 158.43 168.547C158.6 168.749 158.823 168.905 159.099 169.016C159.374 169.126 159.68 169.182 160.015 169.182C160.39 169.182 160.722 169.116 161.012 168.986C161.302 168.855 161.529 168.673 161.694 168.44C161.859 168.207 161.941 167.938 161.941 167.631C161.941 167.31 161.862 167.027 161.702 166.783C161.543 166.536 161.31 166.342 161.004 166.203C160.697 166.064 160.322 165.994 159.879 165.994H159.18V165.057H159.879C160.225 165.057 160.529 164.994 160.79 164.869C161.055 164.744 161.261 164.568 161.408 164.341C161.559 164.114 161.634 163.847 161.634 163.54C161.634 163.244 161.569 162.987 161.438 162.768C161.308 162.55 161.123 162.379 160.884 162.257C160.648 162.135 160.37 162.074 160.049 162.074C159.748 162.074 159.464 162.129 159.197 162.24C158.933 162.348 158.717 162.506 158.549 162.713C158.381 162.918 158.29 163.165 158.276 163.455H157.254C157.271 162.997 157.408 162.597 157.667 162.253C157.925 161.906 158.263 161.636 158.681 161.443C159.102 161.25 159.563 161.153 160.066 161.153C160.606 161.153 161.069 161.263 161.455 161.482C161.842 161.697 162.138 161.983 162.346 162.338C162.553 162.693 162.657 163.077 162.657 163.489C162.657 163.98 162.528 164.399 162.269 164.746C162.013 165.092 161.665 165.332 161.225 165.466V165.534C161.776 165.625 162.207 165.859 162.516 166.237C162.826 166.612 162.981 167.077 162.981 167.631C162.981 168.105 162.852 168.531 162.593 168.909C162.337 169.284 161.988 169.58 161.545 169.795C161.102 170.011 160.597 170.119 160.032 170.119Z" fill="#6B7280"/>
<path d="M220 180C228.284 180 235 173.284 235 165C235 156.716 228.284 150 220 150C211.716 150 205 156.716 205 165C205 173.284 211.716 180 220 180Z" fill="white" stroke="#E5E7EB"/>
<path d="M216.849 168.21V167.341L220.684 161.273H221.315V162.619H220.889L217.991 167.205V167.273H223.156V168.21H216.849ZM220.957 170V167.946V167.541V161.273H221.963V170H220.957Z" fill="#6B7280"/>
<path d="M280 180C288.284 180 295 173.284 295 165C295 156.716 288.284 150 280 150C271.716 150 265 156.716 265 165C265 173.284 271.716 180 280 180Z" fill="white" stroke="#E5E7EB"/>
<path d="M279.98 170.119C279.48 170.119 279.03 170.02 278.629 169.821C278.229 169.622 277.908 169.349 277.666 169.003C277.425 168.656 277.293 168.261 277.27 167.818H278.293C278.333 168.213 278.512 168.54 278.83 168.798C279.151 169.054 279.534 169.182 279.98 169.182C280.338 169.182 280.656 169.098 280.935 168.93C281.216 168.763 281.436 168.533 281.595 168.24C281.757 167.945 281.838 167.611 281.838 167.239C281.838 166.858 281.754 166.518 281.587 166.22C281.422 165.919 281.195 165.682 280.905 165.509C280.615 165.335 280.284 165.247 279.912 165.244C279.645 165.241 279.371 165.283 279.09 165.368C278.808 165.45 278.577 165.557 278.395 165.688L277.406 165.568L277.935 161.273H282.469V162.21H278.821L278.514 164.784H278.566C278.744 164.642 278.969 164.524 279.239 164.43C279.509 164.337 279.79 164.29 280.083 164.29C280.617 164.29 281.093 164.418 281.51 164.673C281.931 164.926 282.26 165.273 282.499 165.713C282.74 166.153 282.861 166.656 282.861 167.222C282.861 167.778 282.736 168.276 282.486 168.713C282.239 169.148 281.898 169.491 281.463 169.744C281.029 169.994 280.534 170.119 279.98 170.119Z" fill="#6B7280"/>
<path d="M340 180C348.284 180 355 173.284 355 165C355 156.716 348.284 150 340 150C331.716 150 325 156.716 325 165C325 173.284 331.716 180 340 180Z" fill="white" stroke="#E5E7EB"/>
<path d="M340.057 170.119C339.699 170.114 339.341 170.045 338.983 169.915C338.625 169.784 338.298 169.564 338.003 169.254C337.708 168.942 337.47 168.52 337.291 167.989C337.112 167.455 337.023 166.784 337.023 165.977C337.023 165.205 337.095 164.52 337.24 163.923C337.385 163.324 337.595 162.82 337.871 162.411C338.146 161.999 338.479 161.686 338.868 161.473C339.26 161.26 339.702 161.153 340.193 161.153C340.682 161.153 341.117 161.251 341.497 161.447C341.881 161.641 342.193 161.911 342.435 162.257C342.676 162.604 342.833 163.003 342.904 163.455H341.864C341.767 163.062 341.58 162.737 341.301 162.479C341.023 162.22 340.654 162.091 340.193 162.091C339.517 162.091 338.985 162.385 338.595 162.973C338.209 163.561 338.014 164.386 338.012 165.449H338.08C338.239 165.207 338.428 165.001 338.646 164.831C338.868 164.658 339.112 164.524 339.379 164.43C339.646 164.337 339.929 164.29 340.227 164.29C340.727 164.29 341.185 164.415 341.6 164.665C342.014 164.912 342.347 165.254 342.597 165.692C342.847 166.126 342.972 166.625 342.972 167.188C342.972 167.727 342.851 168.222 342.61 168.67C342.368 169.116 342.029 169.472 341.591 169.736C341.156 169.997 340.645 170.125 340.057 170.119ZM340.057 169.182C340.415 169.182 340.736 169.092 341.02 168.913C341.307 168.734 341.533 168.494 341.698 168.193C341.865 167.892 341.949 167.557 341.949 167.188C341.949 166.827 341.868 166.499 341.706 166.203C341.547 165.905 341.327 165.668 341.046 165.491C340.767 165.315 340.449 165.227 340.091 165.227C339.821 165.227 339.57 165.281 339.337 165.389C339.104 165.494 338.899 165.639 338.723 165.824C338.55 166.009 338.414 166.22 338.314 166.459C338.215 166.695 338.165 166.943 338.165 167.205C338.165 167.551 338.246 167.875 338.408 168.176C338.573 168.477 338.797 168.72 339.081 168.905C339.368 169.089 339.693 169.182 340.057 169.182Z" fill="#6B7280"/>
<path d="M400 180C408.284 180 415 173.284 415 165C415 156.716 408.284 150 400 150C391.716 150 385 156.716 385 165C385 173.284 391.716 180 400 180Z" fill="white" stroke="#E5E7EB"/>
<path d="M397.748 170L401.652 162.278V162.21H397.152V161.273H402.743V162.261L398.856 170H397.748Z" fill="#6B7280"/>
<path d="M40 220C48.2843 220 55 213.284 55 205C55 196.716 48.2843 190 40 190C31.7157 190 25 196.716 25 205C25 213.284 31.7157 220 40 220Z" fill="white" stroke="#E5E7EB"/>
<path d="M40.0016 210.119C39.4164 210.119 38.8993 210.016 38.4505 209.808C38.0044 209.598 37.6564 209.31 37.4064 208.943C37.1564 208.574 37.0328 208.153 37.0357 207.682C37.0328 207.312 37.1053 206.972 37.253 206.659C37.4007 206.344 37.6025 206.081 37.8581 205.871C38.1167 205.658 38.405 205.523 38.7232 205.466V205.415C38.3056 205.307 37.9732 205.072 37.726 204.712C37.4789 204.348 37.3567 203.935 37.3596 203.472C37.3567 203.028 37.4689 202.632 37.6962 202.283C37.9235 201.933 38.236 201.658 38.6337 201.456C39.0343 201.254 39.4902 201.153 40.0016 201.153C40.5073 201.153 40.959 201.254 41.3567 201.456C41.7544 201.658 42.0669 201.933 42.2942 202.283C42.5243 202.632 42.6408 203.028 42.6436 203.472C42.6408 203.935 42.5144 204.348 42.2644 204.712C42.0172 205.072 41.6891 205.307 41.28 205.415V205.466C41.5953 205.523 41.8794 205.658 42.1323 205.871C42.3851 206.081 42.5868 206.344 42.7374 206.659C42.888 206.972 42.9647 207.312 42.9675 207.682C42.9647 208.153 42.8368 208.574 42.584 208.943C42.334 209.31 41.986 209.598 41.54 209.808C41.0968 210.016 40.584 210.119 40.0016 210.119ZM40.0016 209.182C40.3965 209.182 40.7374 209.118 41.0243 208.99C41.3113 208.862 41.5328 208.682 41.6891 208.449C41.8453 208.216 41.9249 207.943 41.9277 207.631C41.9249 207.301 41.8397 207.01 41.6721 206.757C41.5044 206.504 41.2757 206.305 40.986 206.161C40.699 206.016 40.3709 205.943 40.0016 205.943C39.6294 205.943 39.2971 206.016 39.0044 206.161C38.7147 206.305 38.486 206.504 38.3184 206.757C38.1536 207.01 38.0726 207.301 38.0755 207.631C38.0726 207.943 38.1479 208.216 38.3013 208.449C38.4576 208.682 38.6806 208.862 38.9703 208.99C39.2601 209.118 39.6039 209.182 40.0016 209.182ZM40.0016 205.04C40.3141 205.04 40.5911 204.977 40.8326 204.852C41.0769 204.727 41.2686 204.553 41.4078 204.328C41.5471 204.104 41.6181 203.841 41.6209 203.54C41.6181 203.244 41.5485 202.987 41.4121 202.768C41.2757 202.547 41.0868 202.376 40.8453 202.257C40.6039 202.135 40.3226 202.074 40.0016 202.074C39.6749 202.074 39.3894 202.135 39.1451 202.257C38.9007 202.376 38.7118 202.547 38.5783 202.768C38.4448 202.987 38.3794 203.244 38.3823 203.54C38.3794 203.841 38.4462 204.104 38.5826 204.328C38.7218 204.553 38.9135 204.727 39.1578 204.852C39.4022 204.977 39.6834 205.04 40.0016 205.04Z" fill="#6B7280"/>
<path d="M100 220C108.284 220 115 213.284 115 205C115 196.716 108.284 190 100 190C91.7157 190 85 196.716 85 205C85 213.284 91.7157 220 100 220Z" fill="white" stroke="#E5E7EB"/>
<path d="M99.9377 201.153C100.296 201.156 100.654 201.224 101.012 201.358C101.369 201.491 101.696 201.713 101.992 202.023C102.287 202.33 102.524 202.749 102.703 203.28C102.882 203.811 102.972 204.477 102.972 205.278C102.972 206.054 102.898 206.743 102.75 207.345C102.605 207.945 102.395 208.45 102.119 208.862C101.847 209.274 101.514 209.587 101.122 209.8C100.733 210.013 100.293 210.119 99.8013 210.119C99.3127 210.119 98.8766 210.023 98.4931 209.83C98.1124 209.634 97.7999 209.362 97.5556 209.016C97.3141 208.666 97.1593 208.261 97.0911 207.801H98.1309C98.2246 208.202 98.4107 208.533 98.6891 208.794C98.9703 209.053 99.3411 209.182 99.8013 209.182C100.475 209.182 101.006 208.888 101.395 208.3C101.787 207.712 101.983 206.881 101.983 205.807H101.915C101.756 206.045 101.567 206.251 101.348 206.425C101.129 206.598 100.887 206.732 100.619 206.825C100.352 206.919 100.068 206.966 99.7672 206.966C99.2672 206.966 98.8084 206.842 98.3908 206.595C97.976 206.345 97.6436 206.003 97.3936 205.568C97.1465 205.131 97.0229 204.631 97.0229 204.068C97.0229 203.534 97.1422 203.045 97.3809 202.602C97.6223 202.156 97.9604 201.801 98.3951 201.537C98.8326 201.273 99.3468 201.145 99.9377 201.153ZM99.9377 202.091C99.5797 202.091 99.2573 202.18 98.9703 202.359C98.6863 202.536 98.4604 202.774 98.2928 203.075C98.128 203.374 98.0456 203.705 98.0456 204.068C98.0456 204.432 98.1252 204.763 98.2843 205.061C98.4462 205.357 98.6664 205.592 98.9448 205.768C99.226 205.942 99.5456 206.028 99.9036 206.028C100.173 206.028 100.425 205.976 100.658 205.871C100.891 205.763 101.094 205.616 101.267 205.432C101.443 205.244 101.581 205.033 101.681 204.797C101.78 204.558 101.83 204.31 101.83 204.051C101.83 203.71 101.747 203.391 101.583 203.092C101.421 202.794 101.196 202.553 100.909 202.368C100.625 202.183 100.301 202.091 99.9377 202.091Z" fill="#6B7280"/>
<path d="M160 220C168.284 220 175 213.284 175 205C175 196.716 168.284 190 160 190C151.716 190 145 196.716 145 205C145 213.284 151.716 220 160 220Z" fill="white" stroke="#E5E7EB"/>
<path d="M157.433 201.273V210H156.376V202.381H156.325L154.194 203.795V202.722L156.376 201.273H157.433ZM162.789 210.119C162.147 210.119 161.6 209.945 161.148 209.595C160.697 209.243 160.352 208.733 160.113 208.065C159.874 207.395 159.755 206.585 159.755 205.636C159.755 204.693 159.874 203.888 160.113 203.22C160.354 202.55 160.701 202.038 161.153 201.686C161.607 201.331 162.153 201.153 162.789 201.153C163.425 201.153 163.969 201.331 164.421 201.686C164.876 202.038 165.222 202.55 165.461 203.22C165.702 203.888 165.823 204.693 165.823 205.636C165.823 206.585 165.704 207.395 165.465 208.065C165.227 208.733 164.881 209.243 164.43 209.595C163.978 209.945 163.431 210.119 162.789 210.119ZM162.789 209.182C163.425 209.182 163.92 208.875 164.272 208.261C164.624 207.648 164.8 206.773 164.8 205.636C164.8 204.881 164.719 204.237 164.558 203.706C164.398 203.175 164.168 202.77 163.867 202.491C163.569 202.213 163.21 202.074 162.789 202.074C162.158 202.074 161.665 202.385 161.31 203.007C160.955 203.626 160.778 204.503 160.778 205.636C160.778 206.392 160.857 207.034 161.016 207.562C161.175 208.091 161.404 208.493 161.702 208.768C162.004 209.044 162.366 209.182 162.789 209.182Z" fill="#6B7280"/>
<path d="M220 220C228.284 220 235 213.284 235 205C235 196.716 228.284 190 220 190C211.716 190 205 196.716 205 205C205 213.284 211.716 220 220 220Z" fill="white" stroke="#E5E7EB"/>
<path d="M218.393 201.273V210H217.337V202.381H217.286L215.155 203.795V202.722L217.337 201.273H218.393ZM223.972 201.273V210H222.915V202.381H222.864L220.733 203.795V202.722L222.915 201.273H223.972Z" fill="#6B7280"/>
<path d="M280 220C288.284 220 295 213.284 295 205C295 196.716 288.284 190 280 190C271.716 190 265 196.716 265 205C265 213.284 271.716 220 280 220Z" fill="white" stroke="#E5E7EB"/>
<path d="M277.55 201.273V210H276.493V202.381H276.442L274.311 203.795V202.722L276.493 201.273H277.55ZM280.06 210V209.233L282.94 206.08C283.278 205.71 283.557 205.389 283.776 205.116C283.994 204.841 284.156 204.582 284.261 204.341C284.369 204.097 284.423 203.841 284.423 203.574C284.423 203.267 284.349 203.001 284.202 202.777C284.057 202.553 283.858 202.379 283.605 202.257C283.352 202.135 283.068 202.074 282.753 202.074C282.418 202.074 282.125 202.143 281.875 202.283C281.628 202.419 281.436 202.611 281.3 202.858C281.166 203.105 281.099 203.395 281.099 203.727H280.094C280.094 203.216 280.212 202.767 280.447 202.381C280.683 201.994 281.004 201.693 281.411 201.477C281.82 201.261 282.278 201.153 282.787 201.153C283.298 201.153 283.751 201.261 284.146 201.477C284.541 201.693 284.851 201.984 285.075 202.351C285.3 202.717 285.412 203.125 285.412 203.574C285.412 203.895 285.354 204.209 285.237 204.516C285.124 204.82 284.925 205.159 284.641 205.534C284.359 205.906 283.969 206.361 283.469 206.898L281.509 208.994V209.062H285.565V210H280.06Z" fill="#6B7280"/>
<path d="M340 220C348.284 220 355 213.284 355 205C355 196.716 348.284 190 340 190C331.716 190 325 196.716 325 205C325 213.284 331.716 220 340 220Z" fill="white" stroke="#E5E7EB"/>
<path d="M337.362 201.273V210H336.305V202.381H336.254L334.124 203.795V202.722L336.305 201.273H337.362ZM342.821 210.119C342.259 210.119 341.757 210.023 341.317 209.83C340.879 209.636 340.531 209.368 340.273 209.024C340.017 208.678 339.878 208.276 339.855 207.818H340.929C340.952 208.099 341.048 208.342 341.219 208.547C341.389 208.749 341.612 208.905 341.888 209.016C342.163 209.126 342.469 209.182 342.804 209.182C343.179 209.182 343.511 209.116 343.801 208.986C344.091 208.855 344.318 208.673 344.483 208.44C344.648 208.207 344.73 207.938 344.73 207.631C344.73 207.31 344.651 207.027 344.491 206.783C344.332 206.536 344.099 206.342 343.793 206.203C343.486 206.064 343.111 205.994 342.668 205.994H341.969V205.057H342.668C343.014 205.057 343.318 204.994 343.58 204.869C343.844 204.744 344.05 204.568 344.197 204.341C344.348 204.114 344.423 203.847 344.423 203.54C344.423 203.244 344.358 202.987 344.227 202.768C344.097 202.55 343.912 202.379 343.673 202.257C343.438 202.135 343.159 202.074 342.838 202.074C342.537 202.074 342.253 202.129 341.986 202.24C341.722 202.348 341.506 202.506 341.338 202.713C341.17 202.918 341.08 203.165 341.065 203.455H340.043C340.06 202.997 340.197 202.597 340.456 202.253C340.714 201.906 341.053 201.636 341.47 201.443C341.891 201.25 342.352 201.153 342.855 201.153C343.395 201.153 343.858 201.263 344.244 201.482C344.631 201.697 344.928 201.983 345.135 202.338C345.342 202.693 345.446 203.077 345.446 203.489C345.446 203.98 345.317 204.399 345.058 204.746C344.803 205.092 344.455 205.332 344.014 205.466V205.534C344.565 205.625 344.996 205.859 345.305 206.237C345.615 206.612 345.77 207.077 345.77 207.631C345.77 208.105 345.641 208.531 345.382 208.909C345.126 209.284 344.777 209.58 344.334 209.795C343.891 210.011 343.386 210.119 342.821 210.119Z" fill="#6B7280"/>
<path d="M400 220C408.284 220 415 213.284 415 205C415 196.716 408.284 190 400 190C391.716 190 385 196.716 385 205C385 213.284 391.716 220 400 220Z" fill="#4F46E5" stroke="#4F46E5"/>
<path d="M397.333 201.273V210H396.276V202.381H396.225L394.094 203.795V202.722L396.276 201.273H397.333ZM399.638 208.21V207.341L403.474 201.273H404.104V202.619H403.678L400.78 207.205V207.273H405.945V208.21H399.638ZM403.746 210V207.946V207.541V201.273H404.752V210H403.746Z" fill="white"/>
<path d="M422 220H28C23.5817 220 20 223.582 20 228V292C20 296.418 23.5817 300 28 300H422C426.418 300 430 296.418 430 292V228C430 223.582 426.418 220 422 220Z" fill="#F3F4F6"/>
<path d="M42.938 236.172V238.09H40.334V246H37.94V238.09H35.336V236.172H42.938ZM51.5035 241.968C51.5035 242.192 51.4895 242.425 51.4615 242.668H46.0435C46.0808 243.153 46.2348 243.527 46.5055 243.788C46.7855 244.04 47.1262 244.166 47.5275 244.166C48.1248 244.166 48.5402 243.914 48.7735 243.41H51.3215C51.1908 243.923 50.9528 244.385 50.6075 244.796C50.2715 245.207 49.8468 245.529 49.3335 245.762C48.8202 245.995 48.2462 246.112 47.6115 246.112C46.8462 246.112 46.1648 245.949 45.5675 245.622C44.9702 245.295 44.5035 244.829 44.1675 244.222C43.8315 243.615 43.6635 242.906 43.6635 242.094C43.6635 241.282 43.8268 240.573 44.1535 239.966C44.4895 239.359 44.9562 238.893 45.5535 238.566C46.1508 238.239 46.8368 238.076 47.6115 238.076C48.3675 238.076 49.0395 238.235 49.6275 238.552C50.2155 238.869 50.6728 239.322 50.9995 239.91C51.3355 240.498 51.5035 241.184 51.5035 241.968ZM49.0535 241.338C49.0535 240.927 48.9135 240.601 48.6335 240.358C48.3535 240.115 48.0035 239.994 47.5835 239.994C47.1822 239.994 46.8415 240.111 46.5615 240.344C46.2908 240.577 46.1228 240.909 46.0575 241.338H49.0535ZM52.2904 242.08C52.2904 241.277 52.4398 240.573 52.7384 239.966C53.0464 239.359 53.4618 238.893 53.9844 238.566C54.5071 238.239 55.0904 238.076 55.7344 238.076C56.2851 238.076 56.7658 238.188 57.1764 238.412C57.5964 238.636 57.9184 238.93 58.1424 239.294V238.188H60.5364V246H58.1424V244.894C57.9091 245.258 57.5824 245.552 57.1624 245.776C56.7518 246 56.2711 246.112 55.7204 246.112C55.0858 246.112 54.5071 245.949 53.9844 245.622C53.4618 245.286 53.0464 244.815 52.7384 244.208C52.4398 243.592 52.2904 242.883 52.2904 242.08ZM58.1424 242.094C58.1424 241.497 57.9744 241.025 57.6384 240.68C57.3118 240.335 56.9104 240.162 56.4344 240.162C55.9584 240.162 55.5524 240.335 55.2164 240.68C54.8898 241.016 54.7264 241.483 54.7264 242.08C54.7264 242.677 54.8898 243.153 55.2164 243.508C55.5524 243.853 55.9584 244.026 56.4344 244.026C56.9104 244.026 57.3118 243.853 57.6384 243.508C57.9744 243.163 58.1424 242.691 58.1424 242.094ZM72.2364 238.104C73.2071 238.104 73.9771 238.398 74.5464 238.986C75.1251 239.574 75.4144 240.391 75.4144 241.436V246H73.0344V241.758C73.0344 241.254 72.8991 240.867 72.6284 240.596C72.3671 240.316 72.0031 240.176 71.5364 240.176C71.0697 240.176 70.7011 240.316 70.4304 240.596C70.1691 240.867 70.0384 241.254 70.0384 241.758V246H67.6584V241.758C67.6584 241.254 67.5231 240.867 67.2524 240.596C66.9911 240.316 66.6271 240.176 66.1604 240.176C65.6937 240.176 65.3251 240.316 65.0544 240.596C64.7931 240.867 64.6624 241.254 64.6624 241.758V246H62.2684V238.188H64.6624V239.168C64.9051 238.841 65.2224 238.585 65.6144 238.398C66.0064 238.202 66.4497 238.104 66.9444 238.104C67.5324 238.104 68.0551 238.23 68.5124 238.482C68.9791 238.734 69.3431 239.093 69.6044 239.56C69.8751 239.131 70.2437 238.781 70.7104 238.51C71.1771 238.239 71.6857 238.104 72.2364 238.104ZM91.1855 236.172V246H88.7915V240.106L86.5935 246H84.6615L82.4495 240.092V246H80.0555V236.172H82.8835L85.6415 242.976L88.3715 236.172H91.1855ZM100.271 241.968C100.271 242.192 100.257 242.425 100.229 242.668H94.8111C94.8484 243.153 95.0024 243.527 95.2731 243.788C95.5531 244.04 95.8937 244.166 96.2951 244.166C96.8924 244.166 97.3077 243.914 97.5411 243.41H100.089C99.9584 243.923 99.7204 244.385 99.3751 244.796C99.0391 245.207 98.6144 245.529 98.1011 245.762C97.5877 245.995 97.0137 246.112 96.3791 246.112C95.6137 246.112 94.9324 245.949 94.3351 245.622C93.7377 245.295 93.2711 244.829 92.9351 244.222C92.5991 243.615 92.4311 242.906 92.4311 242.094C92.4311 241.282 92.5944 240.573 92.9211 239.966C93.2571 239.359 93.7237 238.893 94.3211 238.566C94.9184 238.239 95.6044 238.076 96.3791 238.076C97.1351 238.076 97.8071 238.235 98.3951 238.552C98.9831 238.869 99.4404 239.322 99.7671 239.91C100.103 240.498 100.271 241.184 100.271 241.968ZM97.8211 241.338C97.8211 240.927 97.6811 240.601 97.4011 240.358C97.1211 240.115 96.7711 239.994 96.3511 239.994C95.9497 239.994 95.6091 240.111 95.3291 240.344C95.0584 240.577 94.8904 240.909 94.8251 241.338H97.8211ZM108.898 241.968C108.898 242.192 108.884 242.425 108.856 242.668H103.438C103.475 243.153 103.629 243.527 103.9 243.788C104.18 244.04 104.521 244.166 104.922 244.166C105.519 244.166 105.935 243.914 106.168 243.41H108.716C108.585 243.923 108.347 244.385 108.002 244.796C107.666 245.207 107.241 245.529 106.728 245.762C106.215 245.995 105.641 246.112 105.006 246.112C104.241 246.112 103.559 245.949 102.962 245.622C102.365 245.295 101.898 244.829 101.562 244.222C101.226 243.615 101.058 242.906 101.058 242.094C101.058 241.282 101.221 240.573 101.548 239.966C101.884 239.359 102.351 238.893 102.948 238.566C103.545 238.239 104.231 238.076 105.006 238.076C105.762 238.076 106.434 238.235 107.022 238.552C107.61 238.869 108.067 239.322 108.394 239.91C108.73 240.498 108.898 241.184 108.898 241.968ZM106.448 241.338C106.448 240.927 106.308 240.601 106.028 240.358C105.748 240.115 105.398 239.994 104.978 239.994C104.577 239.994 104.236 240.111 103.956 240.344C103.685 240.577 103.517 240.909 103.452 241.338H106.448ZM114.515 243.97V246H113.297C112.429 246 111.752 245.79 111.267 245.37C110.782 244.941 110.539 244.245 110.539 243.284V240.176H109.587V238.188H110.539V236.284H112.933V238.188H114.501V240.176H112.933V243.312C112.933 243.545 112.989 243.713 113.101 243.816C113.213 243.919 113.4 243.97 113.661 243.97H114.515ZM117.052 237.376C116.632 237.376 116.287 237.255 116.016 237.012C115.755 236.76 115.624 236.452 115.624 236.088C115.624 235.715 115.755 235.407 116.016 235.164C116.287 234.912 116.632 234.786 117.052 234.786C117.463 234.786 117.799 234.912 118.06 235.164C118.331 235.407 118.466 235.715 118.466 236.088C118.466 236.452 118.331 236.76 118.06 237.012C117.799 237.255 117.463 237.376 117.052 237.376ZM118.242 238.188V246H115.848V238.188H118.242ZM124.737 238.104C125.652 238.104 126.38 238.403 126.921 239C127.472 239.588 127.747 240.4 127.747 241.436V246H125.367V241.758C125.367 241.235 125.232 240.829 124.961 240.54C124.691 240.251 124.327 240.106 123.869 240.106C123.412 240.106 123.048 240.251 122.777 240.54C122.507 240.829 122.371 241.235 122.371 241.758V246H119.977V238.188H122.371V239.224C122.614 238.879 122.941 238.608 123.351 238.412C123.762 238.207 124.224 238.104 124.737 238.104ZM132.379 238.076C132.93 238.076 133.41 238.188 133.821 238.412C134.241 238.636 134.563 238.93 134.787 239.294V238.188H137.181V245.986C137.181 246.705 137.036 247.353 136.747 247.932C136.467 248.52 136.033 248.987 135.445 249.332C134.866 249.677 134.143 249.85 133.275 249.85C132.118 249.85 131.18 249.575 130.461 249.024C129.742 248.483 129.332 247.745 129.229 246.812H131.595C131.67 247.111 131.847 247.344 132.127 247.512C132.407 247.689 132.752 247.778 133.163 247.778C133.658 247.778 134.05 247.633 134.339 247.344C134.638 247.064 134.787 246.611 134.787 245.986V244.88C134.554 245.244 134.232 245.543 133.821 245.776C133.41 246 132.93 246.112 132.379 246.112C131.735 246.112 131.152 245.949 130.629 245.622C130.106 245.286 129.691 244.815 129.383 244.208C129.084 243.592 128.935 242.883 128.935 242.08C128.935 241.277 129.084 240.573 129.383 239.966C129.691 239.359 130.106 238.893 130.629 238.566C131.152 238.239 131.735 238.076 132.379 238.076ZM134.787 242.094C134.787 241.497 134.619 241.025 134.283 240.68C133.956 240.335 133.555 240.162 133.079 240.162C132.603 240.162 132.197 240.335 131.861 240.68C131.534 241.016 131.371 241.483 131.371 242.08C131.371 242.677 131.534 243.153 131.861 243.508C132.197 243.853 132.603 244.026 133.079 244.026C133.555 244.026 133.956 243.853 134.283 243.508C134.619 243.163 134.787 242.691 134.787 242.094Z" fill="#1F2937"/>
<path d="M36.0568 261.273H37.3182L40.2841 268.517H40.3864L43.3523 261.273H44.6136V270H43.625V263.369H43.5398L40.8125 270H39.858L37.1307 263.369H37.0455V270H36.0568V261.273ZM48.5224 270.153C48.1076 270.153 47.7312 270.075 47.3931 269.919C47.055 269.76 46.7866 269.531 46.5877 269.233C46.3888 268.932 46.2894 268.568 46.2894 268.142C46.2894 267.767 46.3633 267.463 46.511 267.23C46.6587 266.994 46.8562 266.81 47.1033 266.676C47.3505 266.543 47.6232 266.443 47.9215 266.378C48.2227 266.31 48.5252 266.256 48.8292 266.216C49.2269 266.165 49.5494 266.126 49.7965 266.101C50.0465 266.072 50.2283 266.026 50.342 265.96C50.4585 265.895 50.5167 265.781 50.5167 265.619V265.585C50.5167 265.165 50.4016 264.838 50.1715 264.605C49.9442 264.372 49.5991 264.256 49.136 264.256C48.6559 264.256 48.2795 264.361 48.0067 264.571C47.734 264.781 47.5423 265.006 47.4315 265.244L46.4769 264.903C46.6474 264.506 46.8746 264.196 47.1587 263.974C47.4457 263.75 47.7582 263.594 48.0962 263.506C48.4371 263.415 48.7724 263.369 49.1019 263.369C49.3121 263.369 49.5536 263.395 49.8263 263.446C50.1019 263.494 50.3675 263.595 50.6232 263.749C50.8817 263.902 51.0962 264.134 51.2667 264.443C51.4371 264.753 51.5224 265.168 51.5224 265.688V270H50.5167V269.114H50.4656C50.3974 269.256 50.2837 269.408 50.1246 269.57C49.9656 269.732 49.7539 269.869 49.4897 269.983C49.2255 270.097 48.9031 270.153 48.5224 270.153ZM48.6758 269.25C49.0735 269.25 49.4087 269.172 49.6815 269.016C49.957 268.859 50.1644 268.658 50.3036 268.411C50.4457 268.163 50.5167 267.903 50.5167 267.631V266.71C50.4741 266.761 50.3803 266.808 50.2354 266.851C50.0934 266.891 49.9286 266.926 49.7411 266.957C49.5565 266.986 49.3761 267.011 49.1999 267.034C49.0266 267.054 48.886 267.071 48.7781 267.085C48.5167 267.119 48.2724 267.175 48.0451 267.251C47.8207 267.325 47.6388 267.437 47.4996 267.588C47.3633 267.736 47.2951 267.937 47.2951 268.193C47.2951 268.543 47.4244 268.807 47.6829 268.986C47.9442 269.162 48.2752 269.25 48.6758 269.25ZM53.7713 272.455C53.6009 272.455 53.4489 272.44 53.3153 272.412C53.1818 272.386 53.0895 272.361 53.0384 272.335L53.294 271.449C53.5384 271.511 53.7543 271.534 53.9418 271.517C54.1293 271.5 54.2955 271.416 54.4403 271.266C54.5881 271.118 54.723 270.878 54.8452 270.545L55.0327 270.034L52.6122 263.455H53.7031L55.5099 268.67H55.5781L57.3849 263.455H58.4759L55.6974 270.955C55.5724 271.293 55.4176 271.572 55.233 271.794C55.0483 272.018 54.8338 272.185 54.5895 272.293C54.348 272.401 54.0753 272.455 53.7713 272.455ZM63.1612 270V269.233L66.0419 266.08C66.38 265.71 66.6584 265.389 66.8771 265.116C67.0959 264.841 67.2578 264.582 67.3629 264.341C67.4709 264.097 67.5249 263.841 67.5249 263.574C67.5249 263.267 67.451 263.001 67.3033 262.777C67.1584 262.553 66.9595 262.379 66.7067 262.257C66.4538 262.135 66.1697 262.074 65.8544 262.074C65.5192 262.074 65.2266 262.143 64.9766 262.283C64.7294 262.419 64.5376 262.611 64.4013 262.858C64.2678 263.105 64.201 263.395 64.201 263.727H63.1953C63.1953 263.216 63.3132 262.767 63.549 262.381C63.7848 261.994 64.1058 261.693 64.5121 261.477C64.9212 261.261 65.38 261.153 65.8885 261.153C66.3999 261.153 66.853 261.261 67.2479 261.477C67.6428 261.693 67.9524 261.984 68.1768 262.351C68.4013 262.717 68.5135 263.125 68.5135 263.574C68.5135 263.895 68.4553 264.209 68.3388 264.516C68.2251 264.82 68.0263 265.159 67.7422 265.534C67.4609 265.906 67.0703 266.361 66.5703 266.898L64.6101 268.994V269.062H68.6669V270H63.1612ZM73.2734 270.119C72.6314 270.119 72.0845 269.945 71.6328 269.595C71.1811 269.243 70.8359 268.733 70.5973 268.065C70.3587 267.395 70.2393 266.585 70.2393 265.636C70.2393 264.693 70.3587 263.888 70.5973 263.22C70.8388 262.55 71.1854 262.038 71.6371 261.686C72.0916 261.331 72.6371 261.153 73.2734 261.153C73.9098 261.153 74.4538 261.331 74.9055 261.686C75.3601 262.038 75.7067 262.55 75.9453 263.22C76.1868 263.888 76.3075 264.693 76.3075 265.636C76.3075 266.585 76.1882 267.395 75.9496 268.065C75.7109 268.733 75.3658 269.243 74.9141 269.595C74.4624 269.945 73.9155 270.119 73.2734 270.119ZM73.2734 269.182C73.9098 269.182 74.4041 268.875 74.7564 268.261C75.1087 267.648 75.2848 266.773 75.2848 265.636C75.2848 264.881 75.2038 264.237 75.0419 263.706C74.8828 263.175 74.6527 262.77 74.3516 262.491C74.0533 262.213 73.6939 262.074 73.2734 262.074C72.6428 262.074 72.1499 262.385 71.7947 263.007C71.4396 263.626 71.2621 264.503 71.2621 265.636C71.2621 266.392 71.3416 267.034 71.5007 267.562C71.6598 268.091 71.8885 268.493 72.1868 268.768C72.4879 269.044 72.8501 269.182 73.2734 269.182ZM79.1392 268.807L79.071 269.267C79.0227 269.591 78.9489 269.938 78.8494 270.307C78.7528 270.676 78.652 271.024 78.5469 271.351C78.4418 271.678 78.3551 271.938 78.2869 272.131H77.5199C77.5568 271.949 77.6051 271.709 77.6648 271.411C77.7244 271.112 77.7841 270.778 77.8438 270.409C77.9062 270.043 77.9574 269.668 77.9972 269.284L78.0483 268.807H79.1392ZM84.3604 270V269.233L87.2411 266.08C87.5792 265.71 87.8576 265.389 88.0763 265.116C88.2951 264.841 88.457 264.582 88.5621 264.341C88.6701 264.097 88.7241 263.841 88.7241 263.574C88.7241 263.267 88.6502 263.001 88.5025 262.777C88.3576 262.553 88.1587 262.379 87.9059 262.257C87.6531 262.135 87.369 262.074 87.0536 262.074C86.7184 262.074 86.4258 262.143 86.1758 262.283C85.9286 262.419 85.7369 262.611 85.6005 262.858C85.467 263.105 85.4002 263.395 85.4002 263.727H84.3945C84.3945 263.216 84.5124 262.767 84.7482 262.381C84.984 261.994 85.305 261.693 85.7113 261.477C86.1204 261.261 86.5792 261.153 87.0877 261.153C87.5991 261.153 88.0522 261.261 88.4471 261.477C88.842 261.693 89.1516 261.984 89.3761 262.351C89.6005 262.717 89.7127 263.125 89.7127 263.574C89.7127 263.895 89.6545 264.209 89.538 264.516C89.4244 264.82 89.2255 265.159 88.9414 265.534C88.6602 265.906 88.2695 266.361 87.7695 266.898L85.8093 268.994V269.062H89.8661V270H84.3604ZM94.4727 270.119C93.8306 270.119 93.2837 269.945 92.832 269.595C92.3803 269.243 92.0352 268.733 91.7965 268.065C91.5579 267.395 91.4386 266.585 91.4386 265.636C91.4386 264.693 91.5579 263.888 91.7965 263.22C92.038 262.55 92.3846 262.038 92.8363 261.686C93.2908 261.331 93.8363 261.153 94.4727 261.153C95.109 261.153 95.6531 261.331 96.1048 261.686C96.5593 262.038 96.9059 262.55 97.1445 263.22C97.386 263.888 97.5067 264.693 97.5067 265.636C97.5067 266.585 97.3874 267.395 97.1488 268.065C96.9102 268.733 96.565 269.243 96.1133 269.595C95.6616 269.945 95.1147 270.119 94.4727 270.119ZM94.4727 269.182C95.109 269.182 95.6033 268.875 95.9556 268.261C96.3079 267.648 96.484 266.773 96.484 265.636C96.484 264.881 96.4031 264.237 96.2411 263.706C96.082 263.175 95.8519 262.77 95.5508 262.491C95.2525 262.213 94.8931 262.074 94.4727 262.074C93.842 262.074 93.3491 262.385 92.994 263.007C92.6388 263.626 92.4613 264.503 92.4613 265.636C92.4613 266.392 92.5408 267.034 92.6999 267.562C92.859 268.091 93.0877 268.493 93.386 268.768C93.6871 269.044 94.0494 269.182 94.4727 269.182ZM99.1261 270V269.233L102.007 266.08C102.345 265.71 102.623 265.389 102.842 265.116C103.061 264.841 103.223 264.582 103.328 264.341C103.436 264.097 103.49 263.841 103.49 263.574C103.49 263.267 103.416 263.001 103.268 262.777C103.123 262.553 102.924 262.379 102.672 262.257C102.419 262.135 102.135 262.074 101.819 262.074C101.484 262.074 101.191 262.143 100.941 262.283C100.694 262.419 100.502 262.611 100.366 262.858C100.233 263.105 100.166 263.395 100.166 263.727H99.1602C99.1602 263.216 99.2781 262.767 99.5138 262.381C99.7496 261.994 100.071 261.693 100.477 261.477C100.886 261.261 101.345 261.153 101.853 261.153C102.365 261.153 102.818 261.261 103.213 261.477C103.608 261.693 103.917 261.984 104.142 262.351C104.366 262.717 104.478 263.125 104.478 263.574C104.478 263.895 104.42 264.209 104.304 264.516C104.19 264.82 103.991 265.159 103.707 265.534C103.426 265.906 103.035 266.361 102.535 266.898L100.575 268.994V269.062H104.632V270H99.1261ZM109.119 270.119C108.619 270.119 108.169 270.02 107.768 269.821C107.368 269.622 107.047 269.349 106.805 269.003C106.564 268.656 106.431 268.261 106.409 267.818H107.431C107.471 268.213 107.65 268.54 107.968 268.798C108.289 269.054 108.673 269.182 109.119 269.182C109.477 269.182 109.795 269.098 110.074 268.93C110.355 268.763 110.575 268.533 110.734 268.24C110.896 267.945 110.977 267.611 110.977 267.239C110.977 266.858 110.893 266.518 110.725 266.22C110.561 265.919 110.333 265.682 110.044 265.509C109.754 265.335 109.423 265.247 109.051 265.244C108.784 265.241 108.51 265.283 108.228 265.368C107.947 265.45 107.716 265.557 107.534 265.688L106.545 265.568L107.074 261.273H111.608V262.21H107.96L107.653 264.784H107.704C107.883 264.642 108.108 264.524 108.377 264.43C108.647 264.337 108.929 264.29 109.221 264.29C109.755 264.29 110.231 264.418 110.649 264.673C111.069 264.926 111.399 265.273 111.637 265.713C111.879 266.153 112 266.656 112 267.222C112 267.778 111.875 268.276 111.625 268.713C111.377 269.148 111.037 269.491 110.602 269.744C110.167 269.994 109.673 270.119 109.119 270.119ZM119.539 267.511C119.195 267.511 118.881 267.428 118.597 267.26C118.313 267.089 118.086 266.862 117.915 266.578C117.748 266.294 117.664 265.98 117.664 265.636C117.664 265.29 117.748 264.976 117.915 264.695C118.086 264.411 118.313 264.185 118.597 264.017C118.881 263.847 119.195 263.761 119.539 263.761C119.886 263.761 120.2 263.847 120.481 264.017C120.765 264.185 120.991 264.411 121.158 264.695C121.329 264.976 121.414 265.29 121.414 265.636C121.414 265.98 121.329 266.294 121.158 266.578C120.991 266.862 120.765 267.089 120.481 267.26C120.2 267.428 119.886 267.511 119.539 267.511ZM130.261 261.273V270H129.204V262.381H129.153L127.022 263.795V262.722L129.204 261.273H130.261ZM135.617 270.119C134.975 270.119 134.428 269.945 133.977 269.595C133.525 269.243 133.18 268.733 132.941 268.065C132.702 267.395 132.583 266.585 132.583 265.636C132.583 264.693 132.702 263.888 132.941 263.22C133.183 262.55 133.529 262.038 133.981 261.686C134.435 261.331 134.981 261.153 135.617 261.153C136.254 261.153 136.798 261.331 137.249 261.686C137.704 262.038 138.05 262.55 138.289 263.22C138.531 263.888 138.651 264.693 138.651 265.636C138.651 266.585 138.532 267.395 138.293 268.065C138.055 268.733 137.71 269.243 137.258 269.595C136.806 269.945 136.259 270.119 135.617 270.119ZM135.617 269.182C136.254 269.182 136.748 268.875 137.1 268.261C137.452 267.648 137.629 266.773 137.629 265.636C137.629 264.881 137.548 264.237 137.386 263.706C137.227 263.175 136.996 262.77 136.695 262.491C136.397 262.213 136.038 262.074 135.617 262.074C134.987 262.074 134.494 262.385 134.138 263.007C133.783 263.626 133.606 264.503 133.606 265.636C133.606 266.392 133.685 267.034 133.844 267.562C134.004 268.091 134.232 268.493 134.531 268.768C134.832 269.044 135.194 269.182 135.617 269.182ZM141.021 268.884C140.81 268.884 140.63 268.808 140.479 268.658C140.329 268.507 140.254 268.327 140.254 268.116C140.254 267.906 140.329 267.726 140.479 267.575C140.63 267.425 140.81 267.349 141.021 267.349C141.231 267.349 141.411 267.425 141.562 267.575C141.712 267.726 141.788 267.906 141.788 268.116C141.788 268.256 141.752 268.384 141.681 268.5C141.613 268.616 141.521 268.71 141.404 268.781C141.29 268.849 141.163 268.884 141.021 268.884ZM141.021 264.469C140.81 264.469 140.63 264.393 140.479 264.243C140.329 264.092 140.254 263.912 140.254 263.702C140.254 263.491 140.329 263.311 140.479 263.161C140.63 263.01 140.81 262.935 141.021 262.935C141.231 262.935 141.411 263.01 141.562 263.161C141.712 263.311 141.788 263.491 141.788 263.702C141.788 263.841 141.752 263.969 141.681 264.085C141.613 264.202 141.521 264.295 141.404 264.366C141.29 264.435 141.163 264.469 141.021 264.469ZM146.422 270.119C145.78 270.119 145.233 269.945 144.781 269.595C144.33 269.243 143.984 268.733 143.746 268.065C143.507 267.395 143.388 266.585 143.388 265.636C143.388 264.693 143.507 263.888 143.746 263.22C143.987 262.55 144.334 262.038 144.786 261.686C145.24 261.331 145.786 261.153 146.422 261.153C147.058 261.153 147.602 261.331 148.054 261.686C148.509 262.038 148.855 262.55 149.094 263.22C149.335 263.888 149.456 264.693 149.456 265.636C149.456 266.585 149.337 267.395 149.098 268.065C148.859 268.733 148.514 269.243 148.062 269.595C147.611 269.945 147.064 270.119 146.422 270.119ZM146.422 269.182C147.058 269.182 147.553 268.875 147.905 268.261C148.257 267.648 148.433 266.773 148.433 265.636C148.433 264.881 148.352 264.237 148.19 263.706C148.031 263.175 147.801 262.77 147.5 262.491C147.202 262.213 146.842 262.074 146.422 262.074C145.791 262.074 145.298 262.385 144.943 263.007C144.588 263.626 144.411 264.503 144.411 265.636C144.411 266.392 144.49 267.034 144.649 267.562C144.808 268.091 145.037 268.493 145.335 268.768C145.636 269.044 145.999 269.182 146.422 269.182ZM153.922 270.119C153.28 270.119 152.733 269.945 152.281 269.595C151.83 269.243 151.484 268.733 151.246 268.065C151.007 267.395 150.888 266.585 150.888 265.636C150.888 264.693 151.007 263.888 151.246 263.22C151.487 262.55 151.834 262.038 152.286 261.686C152.74 261.331 153.286 261.153 153.922 261.153C154.558 261.153 155.102 261.331 155.554 261.686C156.009 262.038 156.355 262.55 156.594 263.22C156.835 263.888 156.956 264.693 156.956 265.636C156.956 266.585 156.837 267.395 156.598 268.065C156.359 268.733 156.014 269.243 155.562 269.595C155.111 269.945 154.564 270.119 153.922 270.119ZM153.922 269.182C154.558 269.182 155.053 268.875 155.405 268.261C155.757 267.648 155.933 266.773 155.933 265.636C155.933 264.881 155.852 264.237 155.69 263.706C155.531 263.175 155.301 262.77 155 262.491C154.702 262.213 154.342 262.074 153.922 262.074C153.291 262.074 152.798 262.385 152.443 263.007C152.088 263.626 151.911 264.503 151.911 265.636C151.911 266.392 151.99 267.034 152.149 267.562C152.308 268.091 152.537 268.493 152.835 268.768C153.136 269.044 153.499 269.182 153.922 269.182ZM162.462 270H161.354L164.558 261.273H165.649L168.854 270H167.746L165.138 262.653H165.07L162.462 270ZM162.871 266.591H167.337V267.528H162.871V266.591ZM170.213 261.273H171.474L174.44 268.517H174.543L177.509 261.273H178.77V270H177.781V263.369H177.696L174.969 270H174.014L171.287 263.369H171.202V270H170.213V261.273Z" fill="#6B7280"/>
<path d="M408 240H372C365.373 240 360 245.373 360 252C360 258.627 365.373 264 372 264H408C414.627 264 420 258.627 420 252C420 245.373 414.627 240 408 240Z" fill="#EFF6FF"/>
<path d="M378.175 255L375.789 246.273H376.863L378.687 253.381H378.772L380.63 246.273H381.823L383.681 253.381H383.766L385.59 246.273H386.664L384.278 255H383.187L381.26 248.045H381.192L379.266 255H378.175ZM389.894 255.136C389.303 255.136 388.785 254.996 388.339 254.714C387.895 254.433 387.549 254.04 387.299 253.534C387.052 253.028 386.928 252.437 386.928 251.761C386.928 251.08 387.052 250.484 387.299 249.976C387.549 249.467 387.895 249.072 388.339 248.791C388.785 248.51 389.303 248.369 389.894 248.369C390.485 248.369 391.002 248.51 391.445 248.791C391.891 249.072 392.238 249.467 392.485 249.976C392.735 250.484 392.86 251.08 392.86 251.761C392.86 252.437 392.735 253.028 392.485 253.534C392.238 254.04 391.891 254.433 391.445 254.714C391.002 254.996 390.485 255.136 389.894 255.136ZM389.894 254.233C390.343 254.233 390.712 254.118 391.002 253.888C391.292 253.658 391.506 253.355 391.645 252.98C391.785 252.605 391.854 252.199 391.854 251.761C391.854 251.324 391.785 250.916 391.645 250.538C391.506 250.161 391.292 249.855 391.002 249.622C390.712 249.389 390.343 249.273 389.894 249.273C389.445 249.273 389.076 249.389 388.786 249.622C388.496 249.855 388.282 250.161 388.143 250.538C388.003 250.916 387.934 251.324 387.934 251.761C387.934 252.199 388.003 252.605 388.143 252.98C388.282 253.355 388.496 253.658 388.786 253.888C389.076 254.118 389.445 254.233 389.894 254.233ZM394.395 255V248.455H395.367V249.443H395.435C395.554 249.119 395.77 248.857 396.083 248.655C396.395 248.453 396.747 248.352 397.139 248.352C397.213 248.352 397.306 248.354 397.416 248.357C397.527 248.359 397.611 248.364 397.668 248.369V249.392C397.634 249.384 397.556 249.371 397.433 249.354C397.314 249.334 397.188 249.324 397.054 249.324C396.736 249.324 396.452 249.391 396.202 249.524C395.955 249.655 395.759 249.837 395.614 250.07C395.472 250.3 395.401 250.562 395.401 250.858V255H394.395ZM399.797 252.614L399.78 251.369H399.985L402.849 248.455H404.093L401.042 251.54H400.956L399.797 252.614ZM398.86 255V246.273H399.866V255H398.86ZM403.019 255L400.462 251.761L401.178 251.062L404.297 255H403.019Z" fill="#3B82F6"/>
<g opacity="0.9" filter="url(#filter0_f_1_42)">
<path d="M422 60H358C353.582 60 350 63.5817 350 68V92C350 96.4183 353.582 100 358 100H422C426.418 100 430 96.4183 430 92V68C430 63.5817 426.418 60 422 60Z" fill="#F59E0B"/>
</g>
<path d="M365.803 76.2727L364.355 85H362.761L359.884 79.5071H359.816L358.9 85H357.055L358.504 76.2727H360.123L362.987 81.7614H363.059L363.967 76.2727H365.803ZM368.811 85.1278C368.14 85.1278 367.585 84.9915 367.145 84.7188C366.704 84.4432 366.395 84.054 366.216 83.5511C366.04 83.0455 366.01 82.4474 366.126 81.7571C366.24 81.0838 366.469 80.4929 366.812 79.9844C367.159 79.4759 367.594 79.0795 368.116 78.7955C368.639 78.5114 369.221 78.3693 369.863 78.3693C370.295 78.3693 370.686 78.4389 371.035 78.5781C371.388 78.7145 371.68 78.9219 371.913 79.2003C372.146 79.4759 372.305 79.821 372.39 80.2358C372.479 80.6506 372.477 81.1364 372.386 81.6932L372.305 82.1918H366.782L366.957 81.0668H370.775C370.818 80.8054 370.801 80.5739 370.724 80.3722C370.648 80.1705 370.52 80.0128 370.341 79.8991C370.162 79.7827 369.942 79.7244 369.68 79.7244C369.413 79.7244 369.163 79.7898 368.93 79.9205C368.697 80.0511 368.501 80.223 368.342 80.4361C368.186 80.6463 368.085 80.875 368.04 81.1222L367.839 82.2386C367.782 82.5824 367.794 82.8679 367.873 83.0952C367.956 83.3224 368.098 83.4929 368.3 83.6065C368.501 83.7173 368.757 83.7727 369.067 83.7727C369.268 83.7727 369.457 83.7443 369.633 83.6875C369.812 83.6307 369.971 83.5469 370.111 83.4361C370.25 83.3224 370.363 83.1818 370.452 83.0142L372.109 83.125C371.956 83.5284 371.723 83.8807 371.41 84.1818C371.098 84.4801 370.721 84.7131 370.281 84.8807C369.844 85.0455 369.354 85.1278 368.811 85.1278ZM374.273 85L373.583 78.4545H375.419L375.7 82.8523H375.76L377.55 78.4545H379.352L379.693 82.8267H379.749L381.479 78.4545H383.311L380.443 85H378.521L378.078 80.8835H377.997L376.191 85H374.273ZM386 85L387.449 76.2727H393.33L393.074 77.794H389.039L388.698 79.8736H392.431L392.175 81.3949H388.442L388.101 83.4787H392.154L391.898 85H386ZM400.507 78.4545L397.128 85H395.082L393.885 78.4545H395.734L396.314 83.1378H396.382L398.517 78.4545H400.507ZM403.1 85.1278C402.43 85.1278 401.874 84.9915 401.434 84.7188C400.993 84.4432 400.684 84.054 400.505 83.5511C400.329 83.0455 400.299 82.4474 400.415 81.7571C400.529 81.0838 400.758 80.4929 401.101 79.9844C401.448 79.4759 401.883 79.0795 402.405 78.7955C402.928 78.5114 403.51 78.3693 404.153 78.3693C404.584 78.3693 404.975 78.4389 405.324 78.5781C405.677 78.7145 405.969 78.9219 406.202 79.2003C406.435 79.4759 406.594 79.821 406.68 80.2358C406.768 80.6506 406.766 81.1364 406.675 81.6932L406.594 82.1918H401.072L401.246 81.0668H405.064C405.107 80.8054 405.09 80.5739 405.013 80.3722C404.937 80.1705 404.809 80.0128 404.63 79.8991C404.451 79.7827 404.231 79.7244 403.969 79.7244C403.702 79.7244 403.452 79.7898 403.219 79.9205C402.986 80.0511 402.79 80.223 402.631 80.4361C402.475 80.6463 402.374 80.875 402.329 81.1222L402.128 82.2386C402.072 82.5824 402.083 82.8679 402.162 83.0952C402.245 83.3224 402.387 83.4929 402.589 83.6065C402.79 83.7173 403.046 83.7727 403.356 83.7727C403.557 83.7727 403.746 83.7443 403.922 83.6875C404.101 83.6307 404.26 83.5469 404.4 83.4361C404.539 83.3224 404.653 83.1818 404.741 83.0142L406.398 83.125C406.245 83.5284 406.012 83.8807 405.699 84.1818C405.387 84.4801 405.01 84.7131 404.57 84.8807C404.133 85.0455 403.643 85.1278 403.1 85.1278ZM409.772 81.2159L409.142 85H407.33L408.421 78.4545H410.147L409.96 79.6094H410.032C410.24 79.2259 410.532 78.9233 410.91 78.7017C411.291 78.4801 411.724 78.3693 412.21 78.3693C412.664 78.3693 413.044 78.4688 413.347 78.6676C413.654 78.8665 413.87 79.1491 413.995 79.5156C414.123 79.8821 414.144 80.321 414.059 80.8324L413.36 85H411.545L412.188 81.1562C412.254 80.7557 412.203 80.4432 412.035 80.2188C411.87 79.9915 411.605 79.8778 411.238 79.8778C410.994 79.8778 410.769 79.9304 410.565 80.0355C410.36 80.1406 410.188 80.294 410.049 80.4957C409.913 80.6946 409.82 80.9347 409.772 81.2159ZM419.355 78.4545L419.129 79.8182H415.183L415.413 78.4545H419.355ZM416.564 76.8864H418.379L417.365 82.9886C417.336 83.1562 417.341 83.2869 417.378 83.3807C417.415 83.4716 417.476 83.5355 417.561 83.5724C417.649 83.6094 417.754 83.6278 417.876 83.6278C417.961 83.6278 418.048 83.6207 418.136 83.6065C418.224 83.5895 418.291 83.5767 418.336 83.5682L418.405 84.919C418.302 84.9503 418.165 84.9844 417.991 85.0213C417.821 85.0582 417.619 85.081 417.386 85.0895C416.943 85.1065 416.568 85.0483 416.261 84.9148C415.954 84.7784 415.734 84.5696 415.601 84.2884C415.467 84.0071 415.439 83.6534 415.515 83.2273L416.564 76.8864ZM423.056 76.2727L421.88 82.3835H420.329L421.168 76.2727H423.056ZM420.759 85.1108C420.472 85.1108 420.236 85.0114 420.052 84.8125C419.87 84.6136 419.787 84.3722 419.805 84.0881C419.824 83.8068 419.942 83.5696 420.158 83.3764C420.377 83.1804 420.628 83.0824 420.912 83.0824C421.185 83.0824 421.415 83.1804 421.603 83.3764C421.79 83.5724 421.873 83.8097 421.85 84.0881C421.836 84.2756 421.775 84.4474 421.667 84.6037C421.562 84.7571 421.428 84.8807 421.266 84.9744C421.104 85.0653 420.935 85.1108 420.759 85.1108Z" fill="white"/>
<defs>
<filter id="filter0_f_1_42" x="346" y="56" width="88" height="48" filterUnits="userSpaceOnUse" color-interpolation-filters="sRGB">
<feFlood flood-opacity="0" result="BackgroundImageFix"/>
<feBlend mode="normal" in="SourceGraphic" in2="BackgroundImageFix" result="shape"/>
<feGaussianBlur stdDeviation="2" result="effect1_foregroundBlur_1_42"/>
</filter>
</defs>
</svg>
