<svg width="134" height="36" viewBox="0 0 134 36" fill="none" xmlns="http://www.w3.org/2000/svg">
<path d="M20 4H4C1.79086 4 0 5.79086 0 8V24C0 26.2091 1.79086 28 4 28H20C22.2091 28 24 26.2091 24 24V8C24 5.79086 22.2091 4 20 4Z" fill="#F59E0B"/>
<path d="M20 8H4V11H20V8Z" fill="white"/>
<path d="M9 14H7C6.44772 14 6 14.4477 6 15V17C6 17.5523 6.44772 18 7 18H9C9.55228 18 10 17.5523 10 17V15C10 14.4477 9.55228 14 9 14Z" fill="white"/>
<path d="M17 14H15C14.4477 14 14 14.4477 14 15V17C14 17.5523 14.4477 18 15 18H17C17.5523 18 18 17.5523 18 17V15C18 14.4477 17.5523 14 17 14Z" fill="white"/>
<path d="M46.112 19.088C46.112 19.472 46.088 19.872 46.04 20.288H36.752C36.816 21.12 37.08 21.76 37.544 22.208C38.024 22.64 38.608 22.856 39.296 22.856C40.32 22.856 41.032 22.424 41.432 21.56H45.8C45.576 22.44 45.168 23.232 44.576 23.936C44 24.64 43.272 25.192 42.392 25.592C41.512 25.992 40.528 26.192 39.44 26.192C38.128 26.192 36.96 25.912 35.936 25.352C34.912 24.792 34.112 23.992 33.536 22.952C32.96 21.912 32.672 20.696 32.672 19.304C32.672 17.912 32.952 16.696 33.512 15.656C34.088 14.616 34.888 13.816 35.912 13.256C36.936 12.696 38.112 12.416 39.44 12.416C40.736 12.416 41.888 12.688 42.896 13.232C43.904 13.776 44.688 14.552 45.248 15.56C45.824 16.568 46.112 17.744 46.112 19.088ZM41.912 18.008C41.912 17.304 41.672 16.744 41.192 16.328C40.712 15.912 40.112 15.704 39.392 15.704C38.704 15.704 38.12 15.904 37.64 16.304C37.176 16.704 36.888 17.272 36.776 18.008H41.912ZM54.3011 22.16L57.2051 12.608H61.5731L56.8211 26H51.7571L47.0051 12.608H51.3971L54.3011 22.16ZM75.9245 19.088C75.9245 19.472 75.9005 19.872 75.8525 20.288H66.5645C66.6285 21.12 66.8925 21.76 67.3565 22.208C67.8365 22.64 68.4205 22.856 69.1085 22.856C70.1325 22.856 70.8445 22.424 71.2445 21.56H75.6125C75.3885 22.44 74.9805 23.232 74.3885 23.936C73.8125 24.64 73.0845 25.192 72.2045 25.592C71.3245 25.992 70.3405 26.192 69.2525 26.192C67.9405 26.192 66.7725 25.912 65.7485 25.352C64.7245 24.792 63.9245 23.992 63.3485 22.952C62.7725 21.912 62.4845 20.696 62.4845 19.304C62.4845 17.912 62.7645 16.696 63.3245 15.656C63.9005 14.616 64.7005 13.816 65.7245 13.256C66.7485 12.696 67.9245 12.416 69.2525 12.416C70.5485 12.416 71.7005 12.688 72.7085 13.232C73.7165 13.776 74.5005 14.552 75.0605 15.56C75.6365 16.568 75.9245 17.744 75.9245 19.088ZM71.7245 18.008C71.7245 17.304 71.4845 16.744 71.0045 16.328C70.5245 15.912 69.9245 15.704 69.2045 15.704C68.5165 15.704 67.9325 15.904 67.4525 16.304C66.9885 16.704 66.7005 17.272 66.5885 18.008H71.7245ZM86.2496 12.464C87.8176 12.464 89.0656 12.976 89.9936 14C90.9376 15.008 91.4096 16.4 91.4096 18.176V26H87.3296V18.728C87.3296 17.832 87.0976 17.136 86.6336 16.64C86.1696 16.144 85.5456 15.896 84.7616 15.896C83.9776 15.896 83.3536 16.144 82.8896 16.64C82.4256 17.136 82.1936 17.832 82.1936 18.728V26H78.0896V12.608H82.1936V14.384C82.6096 13.792 83.1696 13.328 83.8736 12.992C84.5776 12.64 85.3696 12.464 86.2496 12.464ZM101.725 22.52V26H99.6374C98.1494 26 96.9894 25.64 96.1574 24.92C95.3254 24.184 94.9094 22.992 94.9094 21.344V16.016H93.2774V12.608H94.9094V9.344H99.0134V12.608H101.701V16.016H99.0134V21.392C99.0134 21.792 99.1094 22.08 99.3014 22.256C99.4934 22.432 99.8134 22.52 100.261 22.52H101.725ZM106.075 11.216C105.355 11.216 104.763 11.008 104.299 10.592C103.851 10.16 103.627 9.632 103.627 9.008C103.627 8.368 103.851 7.84 104.299 7.424C104.763 6.992 105.355 6.776 106.075 6.776C106.779 6.776 107.355 6.992 107.803 7.424C108.267 7.84 108.499 8.368 108.499 9.008C108.499 9.632 108.267 10.16 107.803 10.592C107.355 11.008 106.779 11.216 106.075 11.216ZM108.115 12.608V26H104.011V12.608H108.115ZM117.81 16.016H115.602V26H111.498V16.016H110.01V12.608H111.498V12.224C111.498 10.576 111.97 9.328 112.914 8.48C113.858 7.616 115.242 7.184 117.066 7.184C117.37 7.184 117.594 7.192 117.738 7.208V10.688C116.954 10.64 116.402 10.752 116.082 11.024C115.762 11.296 115.602 11.784 115.602 12.488V12.608H117.81V16.016ZM133.418 12.608L125.018 32.36H120.602L123.674 25.544L118.226 12.608H122.81L125.906 20.984L128.978 12.608H133.418Z" fill="#1F2937"/>
</svg>